# MagicaVoxel @ Ephtracy

# group
o 

# material
mtllib Bobby.mtl
usemtl palette

# normals
vn -1 0 0
vn 1 0 0
vn 0 0 1
vn 0 0 -1
vn 0 -1 0
vn 0 1 0

# texcoords
vt 0.0449219 0.5
vt 0.232422 0.5
vt 0.958984 0.5
vt 0.994141 0.5

# verts
v 0 2 -0.4
v 0 2 -0.5
v 0 2 -0.8
v 0 2.1 -0.4
v 0 2.1 -0.5
v 0 2.1 -0.6
v 0 2.4 -0.6
v 0 2.4 -0.8
v 0 2.8 -0.4
v 0 2.8 -0.5
v 0 3.2 -0.4
v 0 3.2 -0.5
v 0.1 2 -0.2
v 0.1 2 -0.3
v 0.1 2.1 -0.5
v 0.1 2.1 -0.6
v 0.1 2.1 -0.8
v 0.1 2.1 -0.9
v 0.1 2.2 -0.4
v 0.1 2.2 -0.5
v 0.1 2.3 -0.3
v 0.1 2.3 -0.4
v 0.1 2.4 -0.4
v 0.1 2.4 -0.6
v 0.1 2.4 -0.8
v 0.1 2.4 -0.9
v 0.1 2.5 -0.1
v 0.1 2.5 -0.2
v 0.1 2.5 -0.4
v 0.1 2.5 -0.5
v 0.1 2.8 -0.4
v 0.1 2.8 -0.5
v 0.1 2.8 -0.6
v 0.1 2.9 -0.1
v 0.1 2.9 -0.4
v 0.1 3.2 -0.4
v 0.1 3.2 -0.5
v 0.1 3.2 -0.6
v 0.1 3.3 -0.4
v 0.1 3.3 -0.6
v 0.2 2.1 -0.7
v 0.2 2.1 -0.8
v 0.2 2.2 -0.3
v 0.2 2.2 -0.4
v 0.2 2.3 -0.3
v 0.2 2.3 -0.4
v 0.2 2.3 -0.7
v 0.2 2.3 -0.8
v 0.2 2.4 -0.4
v 0.2 2.4 -0.9
v 0.2 2.5 0
v 0.2 2.5 -0.1
v 0.2 2.5 -0.4
v 0.2 2.5 -0.5
v 0.2 2.5 -0.9
v 0.2 2.7 0
v 0.2 2.7 -0.1
v 0.2 2.9 -0.4
v 0.2 2.9 -0.5
v 0.2 3.2 -0.4
v 0.2 3.2 -0.5
v 0.3 2.4 -0.3
v 0.3 2.4 -0.4
v 0.3 2.4 -0.9
v 0.3 2.4 -1
v 0.3 2.5 -0.3
v 0.3 2.5 -0.4
v 0.3 2.5 -0.9
v 0.3 2.5 -1
v 0.4 2.3 -0.4
v 0.4 2.3 -0.5
v 0.4 2.4 -0.4
v 0.4 2.4 -0.5
v 0.4 2.5 -0.4
v 0.4 2.5 -0.5
v 0.4 2.9 -0.4
v 0.4 2.9 -0.5
v 0.4 3.2 -0.4
v 0.4 3.2 -0.5
v 0.5 2 -0.2
v 0.5 2 -0.3
v 0.5 2.1 -0.8
v 0.5 2.1 -0.9
v 0.5 2.2 -0.3
v 0.5 2.2 -0.5
v 0.5 2.2 -0.6
v 0.5 2.3 -0.2
v 0.5 2.3 -0.3
v 0.5 2.3 -0.5
v 0.5 2.3 -0.6
v 0.5 2.3 -0.7
v 0.5 2.3 -0.8
v 0.5 2.3 -0.9
v 0.5 2.4 -0.3
v 0.5 2.4 -0.4
v 0.5 2.4 -0.5
v 0.5 2.4 -0.7
v 0.5 2.5 -0.2
v 0.5 2.5 -0.3
v 0.5 2.6 -0.2
v 0.5 2.7 -0.2
v 0.5 2.8 -0.2
v 0.5 2.8 -0.4
v 0.5 2.8 -0.5
v 0.5 2.8 -0.6
v 0.5 3.2 -0.4
v 0.5 3.2 -0.5
v 0.5 3.2 -0.6
v 0.5 3.3 -0.4
v 0.5 3.3 -0.6
v 0.6 2 -0.4
v 0.6 2 -0.5
v 0.6 2 -0.8
v 0.6 2.1 -0.4
v 0.6 2.1 -0.5
v 0.6 2.1 -0.6
v 0.6 2.1 -0.8
v 0.6 2.3 -0.6
v 0.6 2.3 -0.8
v 0.6 2.9 -0.4
v 0.6 2.9 -0.5
v 0.6 3.2 -0.4
v 0.6 3.2 -0.5
v 0.1 2 -0.4
v 0.1 2 -0.5
v 0.1 2 -0.8
v 0.1 2.1 -0.4
v 0.1 2.1 -0.5
v 0.1 2.1 -0.6
v 0.1 2.1 -0.8
v 0.1 2.3 -0.6
v 0.1 2.3 -0.8
v 0.1 2.9 -0.4
v 0.1 2.9 -0.5
v 0.1 3.2 -0.4
v 0.1 3.2 -0.5
v 0.2 2 -0.2
v 0.2 2 -0.3
v 0.2 2.1 -0.8
v 0.2 2.1 -0.9
v 0.2 2.2 -0.3
v 0.2 2.2 -0.5
v 0.2 2.2 -0.6
v 0.2 2.3 -0.2
v 0.2 2.3 -0.3
v 0.2 2.3 -0.5
v 0.2 2.3 -0.6
v 0.2 2.3 -0.7
v 0.2 2.3 -0.8
v 0.2 2.3 -0.9
v 0.2 2.4 -0.3
v 0.2 2.4 -0.4
v 0.2 2.4 -0.5
v 0.2 2.4 -0.7
v 0.2 2.5 -0.2
v 0.2 2.5 -0.3
v 0.2 2.6 -0.2
v 0.2 2.7 -0.2
v 0.2 2.8 -0.2
v 0.2 2.8 -0.4
v 0.2 2.8 -0.5
v 0.2 2.8 -0.6
v 0.2 3.2 -0.4
v 0.2 3.2 -0.5
v 0.2 3.2 -0.6
v 0.2 3.3 -0.4
v 0.2 3.3 -0.6
v 0.3 2.3 -0.4
v 0.3 2.3 -0.5
v 0.3 2.4 -0.4
v 0.3 2.4 -0.5
v 0.3 2.5 -0.4
v 0.3 2.5 -0.5
v 0.3 2.9 -0.4
v 0.3 2.9 -0.5
v 0.3 3.2 -0.4
v 0.3 3.2 -0.5
v 0.4 2.4 -0.3
v 0.4 2.4 -0.4
v 0.4 2.4 -0.9
v 0.4 2.4 -1
v 0.4 2.5 -0.3
v 0.4 2.5 -0.4
v 0.4 2.5 -0.9
v 0.4 2.5 -1
v 0.5 2.1 -0.7
v 0.5 2.1 -0.8
v 0.5 2.2 -0.3
v 0.5 2.2 -0.4
v 0.5 2.3 -0.3
v 0.5 2.3 -0.4
v 0.5 2.3 -0.7
v 0.5 2.3 -0.8
v 0.5 2.4 -0.4
v 0.5 2.4 -0.9
v 0.5 2.5 0
v 0.5 2.5 -0.1
v 0.5 2.5 -0.4
v 0.5 2.5 -0.5
v 0.5 2.5 -0.9
v 0.5 2.7 0
v 0.5 2.7 -0.1
v 0.5 2.9 -0.4
v 0.5 2.9 -0.5
v 0.5 3.2 -0.4
v 0.5 3.2 -0.5
v 0.6 2 -0.2
v 0.6 2 -0.3
v 0.6 2.1 -0.5
v 0.6 2.1 -0.6
v 0.6 2.1 -0.8
v 0.6 2.1 -0.9
v 0.6 2.2 -0.4
v 0.6 2.2 -0.5
v 0.6 2.3 -0.3
v 0.6 2.3 -0.4
v 0.6 2.4 -0.4
v 0.6 2.4 -0.6
v 0.6 2.4 -0.8
v 0.6 2.4 -0.9
v 0.6 2.5 -0.1
v 0.6 2.5 -0.2
v 0.6 2.5 -0.4
v 0.6 2.5 -0.5
v 0.6 2.8 -0.4
v 0.6 2.8 -0.5
v 0.6 2.8 -0.6
v 0.6 2.9 -0.1
v 0.6 2.9 -0.4
v 0.6 3.2 -0.4
v 0.6 3.2 -0.5
v 0.6 3.2 -0.6
v 0.6 3.3 -0.4
v 0.6 3.3 -0.6
v 0.7 2 -0.4
v 0.7 2 -0.5
v 0.7 2 -0.8
v 0.7 2.1 -0.4
v 0.7 2.1 -0.5
v 0.7 2.1 -0.6
v 0.7 2.4 -0.6
v 0.7 2.4 -0.8
v 0.7 2.8 -0.4
v 0.7 2.8 -0.5
v 0.7 3.2 -0.4
v 0.7 3.2 -0.5
v 0.2 2.5 0
v 0.2 2.7 0
v 0.5 2.5 0
v 0.5 2.7 0
v 0.1 2.5 -0.1
v 0.1 2.9 -0.1
v 0.2 2.5 -0.1
v 0.2 2.7 -0.1
v 0.2 2.8 -0.1
v 0.3 2.7 -0.1
v 0.3 2.8 -0.1
v 0.4 2.7 -0.1
v 0.4 2.8 -0.1
v 0.5 2.5 -0.1
v 0.5 2.7 -0.1
v 0.5 2.8 -0.1
v 0.6 2.5 -0.1
v 0.6 2.9 -0.1
v 0.1 2 -0.2
v 0.1 2.5 -0.2
v 0.2 2 -0.2
v 0.2 2.3 -0.2
v 0.2 2.5 -0.2
v 0.5 2 -0.2
v 0.5 2.3 -0.2
v 0.5 2.5 -0.2
v 0.6 2 -0.2
v 0.6 2.5 -0.2
v 0.2 2.2 -0.3
v 0.2 2.3 -0.3
v 0.5 2.2 -0.3
v 0.5 2.3 -0.3
v 0 2 -0.4
v 0 2.1 -0.4
v 0 2.8 -0.4
v 0 3.2 -0.4
v 0.1 2 -0.4
v 0.1 2.1 -0.4
v 0.1 2.2 -0.4
v 0.1 2.3 -0.4
v 0.1 2.8 -0.4
v 0.1 2.9 -0.4
v 0.1 3.2 -0.4
v 0.1 3.3 -0.4
v 0.2 2.2 -0.4
v 0.2 2.3 -0.4
v 0.2 2.4 -0.4
v 0.2 2.8 -0.4
v 0.2 2.9 -0.4
v 0.2 3.2 -0.4
v 0.2 3.3 -0.4
v 0.3 2.4 -0.4
v 0.3 2.5 -0.4
v 0.3 2.9 -0.4
v 0.3 3.2 -0.4
v 0.4 2.4 -0.4
v 0.4 2.5 -0.4
v 0.4 2.9 -0.4
v 0.4 3.2 -0.4
v 0.5 2.2 -0.4
v 0.5 2.3 -0.4
v 0.5 2.4 -0.4
v 0.5 2.8 -0.4
v 0.5 2.9 -0.4
v 0.5 3.2 -0.4
v 0.5 3.3 -0.4
v 0.6 2 -0.4
v 0.6 2.1 -0.4
v 0.6 2.2 -0.4
v 0.6 2.3 -0.4
v 0.6 2.8 -0.4
v 0.6 2.9 -0.4
v 0.6 3.2 -0.4
v 0.6 3.3 -0.4
v 0.7 2 -0.4
v 0.7 2.1 -0.4
v 0.7 2.8 -0.4
v 0.7 3.2 -0.4
v 0.1 2.1 -0.5
v 0.1 2.2 -0.5
v 0.1 2.9 -0.5
v 0.1 3.2 -0.5
v 0.2 2.9 -0.5
v 0.2 3.2 -0.5
v 0.3 2.4 -0.5
v 0.3 2.5 -0.5
v 0.4 2.4 -0.5
v 0.4 2.5 -0.5
v 0.5 2.9 -0.5
v 0.5 3.2 -0.5
v 0.6 2.1 -0.5
v 0.6 2.2 -0.5
v 0.6 2.9 -0.5
v 0.6 3.2 -0.5
v 0 2.1 -0.6
v 0 2.4 -0.6
v 0.1 2.1 -0.6
v 0.1 2.4 -0.6
v 0.6 2.1 -0.6
v 0.6 2.4 -0.6
v 0.7 2.1 -0.6
v 0.7 2.4 -0.6
v 0.2 2.1 -0.7
v 0.2 2.3 -0.7
v 0.2 2.4 -0.7
v 0.5 2.1 -0.7
v 0.5 2.3 -0.7
v 0.5 2.4 -0.7
v 0.1 2.1 -0.8
v 0.1 2.3 -0.8
v 0.2 2.1 -0.8
v 0.2 2.3 -0.8
v 0.5 2.1 -0.8
v 0.5 2.3 -0.8
v 0.6 2.1 -0.8
v 0.6 2.3 -0.8
v 0.2 2.5 -0.2
v 0.2 2.6 -0.2
v 0.2 2.7 -0.2
v 0.2 2.8 -0.2
v 0.3 2.7 -0.2
v 0.3 2.8 -0.2
v 0.4 2.7 -0.2
v 0.4 2.8 -0.2
v 0.5 2.5 -0.2
v 0.5 2.6 -0.2
v 0.5 2.7 -0.2
v 0.5 2.8 -0.2
v 0.1 2 -0.3
v 0.1 2.3 -0.3
v 0.2 2 -0.3
v 0.2 2.2 -0.3
v 0.2 2.3 -0.3
v 0.2 2.4 -0.3
v 0.2 2.5 -0.3
v 0.3 2.4 -0.3
v 0.3 2.5 -0.3
v 0.4 2.4 -0.3
v 0.4 2.5 -0.3
v 0.5 2 -0.3
v 0.5 2.2 -0.3
v 0.5 2.3 -0.3
v 0.5 2.4 -0.3
v 0.5 2.5 -0.3
v 0.6 2 -0.3
v 0.6 2.3 -0.3
v 0.1 2.4 -0.4
v 0.1 2.5 -0.4
v 0.2 2.4 -0.4
v 0.2 2.5 -0.4
v 0.3 2.3 -0.4
v 0.3 2.4 -0.4
v 0.3 2.5 -0.4
v 0.4 2.3 -0.4
v 0.4 2.4 -0.4
v 0.4 2.5 -0.4
v 0.5 2.4 -0.4
v 0.5 2.5 -0.4
v 0.6 2.4 -0.4
v 0.6 2.5 -0.4
v 0 2.8 -0.5
v 0 3.2 -0.5
v 0.1 2.5 -0.5
v 0.1 2.8 -0.5
v 0.1 3.2 -0.5
v 0.2 2.2 -0.5
v 0.2 2.3 -0.5
v 0.2 2.4 -0.5
v 0.2 2.5 -0.5
v 0.2 2.8 -0.5
v 0.2 3.2 -0.5
v 0.3 2.3 -0.5
v 0.3 2.4 -0.5
v 0.3 2.9 -0.5
v 0.3 3.2 -0.5
v 0.4 2.3 -0.5
v 0.4 2.4 -0.5
v 0.4 2.9 -0.5
v 0.4 3.2 -0.5
v 0.5 2.2 -0.5
v 0.5 2.3 -0.5
v 0.5 2.4 -0.5
v 0.5 2.5 -0.5
v 0.5 2.8 -0.5
v 0.5 3.2 -0.5
v 0.6 2.5 -0.5
v 0.6 2.8 -0.5
v 0.6 3.2 -0.5
v 0.7 2.8 -0.5
v 0.7 3.2 -0.5
v 0.1 2.1 -0.6
v 0.1 2.3 -0.6
v 0.1 2.8 -0.6
v 0.1 3.2 -0.6
v 0.1 3.3 -0.6
v 0.2 2.2 -0.6
v 0.2 2.3 -0.6
v 0.2 2.8 -0.6
v 0.2 3.2 -0.6
v 0.2 3.3 -0.6
v 0.5 2.2 -0.6
v 0.5 2.3 -0.6
v 0.5 2.8 -0.6
v 0.5 3.2 -0.6
v 0.5 3.3 -0.6
v 0.6 2.1 -0.6
v 0.6 2.3 -0.6
v 0.6 2.8 -0.6
v 0.6 3.2 -0.6
v 0.6 3.3 -0.6
v 0 2 -0.8
v 0 2.4 -0.8
v 0.1 2 -0.8
v 0.1 2.1 -0.8
v 0.1 2.4 -0.8
v 0.2 2.1 -0.8
v 0.2 2.3 -0.8
v 0.5 2.1 -0.8
v 0.5 2.3 -0.8
v 0.6 2 -0.8
v 0.6 2.1 -0.8
v 0.6 2.4 -0.8
v 0.7 2 -0.8
v 0.7 2.4 -0.8
v 0.1 2.1 -0.9
v 0.1 2.4 -0.9
v 0.2 2.1 -0.9
v 0.2 2.3 -0.9
v 0.2 2.4 -0.9
v 0.2 2.5 -0.9
v 0.3 2.4 -0.9
v 0.3 2.5 -0.9
v 0.4 2.4 -0.9
v 0.4 2.5 -0.9
v 0.5 2.1 -0.9
v 0.5 2.3 -0.9
v 0.5 2.4 -0.9
v 0.5 2.5 -0.9
v 0.6 2.1 -0.9
v 0.6 2.4 -0.9
v 0.3 2.4 -1
v 0.3 2.5 -1
v 0.4 2.4 -1
v 0.4 2.5 -1
v 0.1 2 -0.2
v 0.2 2 -0.2
v 0.5 2 -0.2
v 0.6 2 -0.2
v 0.1 2 -0.3
v 0.2 2 -0.3
v 0.5 2 -0.3
v 0.6 2 -0.3
v 0 2 -0.4
v 0.1 2 -0.4
v 0.6 2 -0.4
v 0.7 2 -0.4
v 0 2 -0.5
v 0.1 2 -0.5
v 0.6 2 -0.5
v 0.7 2 -0.5
v 0 2 -0.8
v 0.1 2 -0.8
v 0.6 2 -0.8
v 0.7 2 -0.8
v 0.1 2.1 -0.5
v 0.6 2.1 -0.5
v 0.1 2.1 -0.6
v 0.6 2.1 -0.6
v 0.2 2.1 -0.7
v 0.5 2.1 -0.7
v 0.1 2.1 -0.8
v 0.2 2.1 -0.8
v 0.5 2.1 -0.8
v 0.6 2.1 -0.8
v 0.1 2.1 -0.9
v 0.2 2.1 -0.9
v 0.5 2.1 -0.9
v 0.6 2.1 -0.9
v 0.2 2.2 -0.3
v 0.5 2.2 -0.3
v 0.1 2.2 -0.4
v 0.2 2.2 -0.4
v 0.5 2.2 -0.4
v 0.6 2.2 -0.4
v 0.1 2.2 -0.5
v 0.6 2.2 -0.5
v 0.2 2.3 -0.2
v 0.5 2.3 -0.2
v 0.1 2.3 -0.3
v 0.2 2.3 -0.3
v 0.5 2.3 -0.3
v 0.6 2.3 -0.3
v 0.1 2.3 -0.4
v 0.2 2.3 -0.4
v 0.5 2.3 -0.4
v 0.6 2.3 -0.4
v 0.1 2.3 -0.6
v 0.2 2.3 -0.6
v 0.5 2.3 -0.6
v 0.6 2.3 -0.6
v 0.2 2.3 -0.7
v 0.5 2.3 -0.7
v 0.1 2.3 -0.8
v 0.2 2.3 -0.8
v 0.5 2.3 -0.8
v 0.6 2.3 -0.8
v 0.2 2.3 -0.9
v 0.5 2.3 -0.9
v 0.2 2.4 -0.5
v 0.3 2.4 -0.5
v 0.4 2.4 -0.5
v 0.5 2.4 -0.5
v 0.2 2.4 -0.7
v 0.5 2.4 -0.7
v 0.3 2.4 -0.9
v 0.4 2.4 -0.9
v 0.3 2.4 -1
v 0.4 2.4 -1
v 0.2 2.5 0
v 0.5 2.5 0
v 0.1 2.5 -0.1
v 0.2 2.5 -0.1
v 0.5 2.5 -0.1
v 0.6 2.5 -0.1
v 0.1 2.5 -0.2
v 0.2 2.5 -0.2
v 0.5 2.5 -0.2
v 0.6 2.5 -0.2
v 0.1 2.5 -0.4
v 0.2 2.5 -0.4
v 0.3 2.5 -0.4
v 0.4 2.5 -0.4
v 0.5 2.5 -0.4
v 0.6 2.5 -0.4
v 0.1 2.5 -0.5
v 0.2 2.5 -0.5
v 0.3 2.5 -0.5
v 0.4 2.5 -0.5
v 0.5 2.5 -0.5
v 0.6 2.5 -0.5
v 0.2 2.8 -0.2
v 0.3 2.8 -0.2
v 0.4 2.8 -0.2
v 0.5 2.8 -0.2
v 0 2.8 -0.4
v 0.1 2.8 -0.4
v 0.2 2.8 -0.4
v 0.5 2.8 -0.4
v 0.6 2.8 -0.4
v 0.7 2.8 -0.4
v 0 2.8 -0.5
v 0.1 2.8 -0.5
v 0.2 2.8 -0.5
v 0.5 2.8 -0.5
v 0.6 2.8 -0.5
v 0.7 2.8 -0.5
v 0.1 2.8 -0.6
v 0.2 2.8 -0.6
v 0.5 2.8 -0.6
v 0.6 2.8 -0.6
v 0.1 3.2 -0.4
v 0.2 3.2 -0.4
v 0.5 3.2 -0.4
v 0.6 3.2 -0.4
v 0.1 3.2 -0.5
v 0.2 3.2 -0.5
v 0.5 3.2 -0.5
v 0.6 3.2 -0.5
v 0 2.1 -0.4
v 0.1 2.1 -0.4
v 0.6 2.1 -0.4
v 0.7 2.1 -0.4
v 0 2.1 -0.5
v 0.1 2.1 -0.5
v 0.6 2.1 -0.5
v 0.7 2.1 -0.5
v 0 2.1 -0.6
v 0.1 2.1 -0.6
v 0.6 2.1 -0.6
v 0.7 2.1 -0.6
v 0.2 2.2 -0.5
v 0.5 2.2 -0.5
v 0.2 2.2 -0.6
v 0.5 2.2 -0.6
v 0.3 2.3 -0.4
v 0.4 2.3 -0.4
v 0.3 2.3 -0.5
v 0.4 2.3 -0.5
v 0.2 2.4 -0.3
v 0.3 2.4 -0.3
v 0.4 2.4 -0.3
v 0.5 2.4 -0.3
v 0.1 2.4 -0.4
v 0.2 2.4 -0.4
v 0.3 2.4 -0.4
v 0.4 2.4 -0.4
v 0.5 2.4 -0.4
v 0.6 2.4 -0.4
v 0 2.4 -0.6
v 0.1 2.4 -0.6
v 0.6 2.4 -0.6
v 0.7 2.4 -0.6
v 0 2.4 -0.8
v 0.1 2.4 -0.8
v 0.6 2.4 -0.8
v 0.7 2.4 -0.8
v 0.1 2.4 -0.9
v 0.2 2.4 -0.9
v 0.5 2.4 -0.9
v 0.6 2.4 -0.9
v 0.2 2.5 -0.2
v 0.5 2.5 -0.2
v 0.2 2.5 -0.3
v 0.3 2.5 -0.3
v 0.4 2.5 -0.3
v 0.5 2.5 -0.3
v 0.3 2.5 -0.4
v 0.4 2.5 -0.4
v 0.2 2.5 -0.5
v 0.5 2.5 -0.5
v 0.2 2.5 -0.9
v 0.3 2.5 -0.9
v 0.4 2.5 -0.9
v 0.5 2.5 -0.9
v 0.3 2.5 -1
v 0.4 2.5 -1
v 0.2 2.7 0
v 0.5 2.7 0
v 0.2 2.7 -0.1
v 0.3 2.7 -0.1
v 0.4 2.7 -0.1
v 0.5 2.7 -0.1
v 0.1 2.9 -0.1
v 0.6 2.9 -0.1
v 0.1 2.9 -0.4
v 0.2 2.9 -0.4
v 0.3 2.9 -0.4
v 0.4 2.9 -0.4
v 0.5 2.9 -0.4
v 0.6 2.9 -0.4
v 0.1 2.9 -0.5
v 0.2 2.9 -0.5
v 0.3 2.9 -0.5
v 0.4 2.9 -0.5
v 0.5 2.9 -0.5
v 0.6 2.9 -0.5
v 0 3.2 -0.4
v 0.1 3.2 -0.4
v 0.2 3.2 -0.4
v 0.3 3.2 -0.4
v 0.4 3.2 -0.4
v 0.5 3.2 -0.4
v 0.6 3.2 -0.4
v 0.7 3.2 -0.4
v 0 3.2 -0.5
v 0.1 3.2 -0.5
v 0.2 3.2 -0.5
v 0.3 3.2 -0.5
v 0.4 3.2 -0.5
v 0.5 3.2 -0.5
v 0.6 3.2 -0.5
v 0.7 3.2 -0.5
v 0.1 3.3 -0.4
v 0.2 3.3 -0.4
v 0.5 3.3 -0.4
v 0.6 3.3 -0.4
v 0.1 3.3 -0.6
v 0.2 3.3 -0.6
v 0.5 3.3 -0.6
v 0.6 3.3 -0.6

# faces
f 4/1/1 2/1/1 1/1/1
f 5/2/1 3/2/1 2/2/1
f 5/1/1 2/1/1 4/1/1
f 6/2/1 3/2/1 5/2/1
f 7/2/1 3/2/1 6/2/1
f 8/2/1 3/2/1 7/2/1
f 11/2/1 10/2/1 9/2/1
f 12/2/1 10/2/1 11/2/1
f 20/2/1 16/2/1 15/2/1
f 21/2/1 14/2/1 13/2/1
f 22/2/1 20/2/1 19/2/1
f 23/2/1 20/2/1 22/2/1
f 23/2/1 22/2/1 21/2/1
f 24/2/1 16/2/1 20/2/1
f 24/2/1 20/2/1 23/2/1
f 25/2/1 18/2/1 17/2/1
f 26/2/1 18/2/1 25/2/1
f 28/2/1 21/2/1 13/2/1
f 28/2/1 23/2/1 21/2/1
f 29/2/1 23/2/1 28/2/1
f 31/2/1 28/2/1 27/2/1
f 31/2/1 30/2/1 29/2/1
f 31/2/1 29/2/1 28/2/1
f 32/2/1 30/2/1 31/2/1
f 34/2/1 31/2/1 27/2/1
f 35/2/1 31/2/1 34/2/1
f 37/2/1 33/2/1 32/2/1
f 38/2/1 33/2/1 37/2/1
f 39/1/1 37/1/1 36/1/1
f 39/1/1 38/1/1 37/1/1
f 40/1/1 38/1/1 39/1/1
f 45/2/1 44/2/1 43/2/1
f 46/2/1 44/2/1 45/2/1
f 47/2/1 42/2/1 41/2/1
f 48/2/1 42/2/1 47/2/1
f 53/2/1 50/2/1 49/2/1
f 54/2/1 50/2/1 53/2/1
f 55/2/1 50/2/1 54/2/1
f 56/1/1 52/1/1 51/1/1
f 57/1/1 52/1/1 56/1/1
f 60/2/1 59/2/1 58/2/1
f 61/2/1 59/2/1 60/2/1
f 66/2/1 63/2/1 62/2/1
f 67/2/1 63/2/1 66/2/1
f 68/1/1 65/1/1 64/1/1
f 69/1/1 65/1/1 68/1/1
f 72/1/1 71/1/1 70/1/1
f 73/1/1 71/1/1 72/1/1
f 74/2/1 73/2/1 72/2/1
f 75/2/1 73/2/1 74/2/1
f 78/2/1 77/2/1 76/2/1
f 79/2/1 77/2/1 78/2/1
f 84/2/1 81/2/1 80/2/1
f 87/2/1 84/2/1 80/2/1
f 88/2/1 84/2/1 87/2/1
f 89/2/1 86/2/1 85/2/1
f 90/2/1 86/2/1 89/2/1
f 92/2/1 83/2/1 82/2/1
f 93/2/1 83/2/1 92/2/1
f 96/2/1 91/2/1 90/2/1
f 96/2/1 90/2/1 89/2/1
f 97/2/1 91/2/1 96/2/1
f 99/2/1 95/2/1 94/2/1
f 100/2/1 99/2/1 98/2/1
f 101/2/1 99/2/1 100/2/1
f 102/2/1 99/2/1 101/2/1
f 103/2/1 95/2/1 99/2/1
f 103/2/1 99/2/1 102/2/1
f 107/2/1 105/2/1 104/2/1
f 108/2/1 105/2/1 107/2/1
f 109/1/1 107/1/1 106/1/1
f 109/1/1 108/1/1 107/1/1
f 110/1/1 108/1/1 109/1/1
f 114/1/1 112/1/1 111/1/1
f 115/2/1 113/2/1 112/2/1
f 115/1/1 112/1/1 114/1/1
f 116/2/1 113/2/1 115/2/1
f 117/2/1 113/2/1 116/2/1
f 118/2/1 117/2/1 116/2/1
f 119/2/1 117/2/1 118/2/1
f 122/2/1 121/2/1 120/2/1
f 123/2/1 121/2/1 122/2/1
f 124/1/2 125/1/2 127/1/2
f 125/2/2 126/2/2 128/2/2
f 127/1/2 125/1/2 128/1/2
f 128/2/2 126/2/2 129/2/2
f 129/2/2 126/2/2 130/2/2
f 129/2/2 130/2/2 131/2/2
f 131/2/2 130/2/2 132/2/2
f 133/2/2 134/2/2 135/2/2
f 135/2/2 134/2/2 136/2/2
f 137/2/2 138/2/2 141/2/2
f 137/2/2 141/2/2 144/2/2
f 144/2/2 141/2/2 145/2/2
f 142/2/2 143/2/2 146/2/2
f 146/2/2 143/2/2 147/2/2
f 139/2/2 140/2/2 149/2/2
f 149/2/2 140/2/2 150/2/2
f 147/2/2 148/2/2 153/2/2
f 146/2/2 147/2/2 153/2/2
f 153/2/2 148/2/2 154/2/2
f 151/2/2 152/2/2 156/2/2
f 155/2/2 156/2/2 157/2/2
f 157/2/2 156/2/2 158/2/2
f 158/2/2 156/2/2 159/2/2
f 156/2/2 152/2/2 160/2/2
f 159/2/2 156/2/2 160/2/2
f 161/2/2 162/2/2 164/2/2
f 164/2/2 162/2/2 165/2/2
f 163/1/2 164/1/2 166/1/2
f 164/1/2 165/1/2 166/1/2
f 166/1/2 165/1/2 167/1/2
f 168/1/2 169/1/2 170/1/2
f 170/1/2 169/1/2 171/1/2
f 170/2/2 171/2/2 172/2/2
f 172/2/2 171/2/2 173/2/2
f 174/2/2 175/2/2 176/2/2
f 176/2/2 175/2/2 177/2/2
f 178/2/2 179/2/2 182/2/2
f 182/2/2 179/2/2 183/2/2
f 180/1/2 181/1/2 184/1/2
f 184/1/2 181/1/2 185/1/2
f 188/2/2 189/2/2 190/2/2
f 190/2/2 189/2/2 191/2/2
f 186/2/2 187/2/2 192/2/2
f 192/2/2 187/2/2 193/2/2
f 194/2/2 195/2/2 198/2/2
f 198/2/2 195/2/2 199/2/2
f 199/2/2 195/2/2 200/2/2
f 196/1/2 197/1/2 201/1/2
f 201/1/2 197/1/2 202/1/2
f 203/2/2 204/2/2 205/2/2
f 205/2/2 204/2/2 206/2/2
f 209/2/2 210/2/2 214/2/2
f 207/2/2 208/2/2 215/2/2
f 213/2/2 214/2/2 216/2/2
f 216/2/2 214/2/2 217/2/2
f 215/2/2 216/2/2 217/2/2
f 214/2/2 210/2/2 218/2/2
f 217/2/2 214/2/2 218/2/2
f 211/2/2 212/2/2 219/2/2
f 219/2/2 212/2/2 220/2/2
f 207/2/2 215/2/2 222/2/2
f 215/2/2 217/2/2 222/2/2
f 222/2/2 217/2/2 223/2/2
f 221/2/2 222/2/2 225/2/2
f 223/2/2 224/2/2 225/2/2
f 222/2/2 223/2/2 225/2/2
f 225/2/2 224/2/2 226/2/2
f 221/2/2 225/2/2 228/2/2
f 228/2/2 225/2/2 229/2/2
f 226/2/2 227/2/2 231/2/2
f 231/2/2 227/2/2 232/2/2
f 230/1/2 231/1/2 233/1/2
f 231/1/2 232/1/2 233/1/2
f 233/1/2 232/1/2 234/1/2
f 235/1/2 236/1/2 238/1/2
f 236/2/2 237/2/2 239/2/2
f 238/1/2 236/1/2 239/1/2
f 239/2/2 237/2/2 240/2/2
f 240/2/2 237/2/2 241/2/2
f 241/2/2 237/2/2 242/2/2
f 243/2/2 244/2/2 245/2/2
f 245/2/2 244/2/2 246/2/2
f 249/1/3 248/1/3 247/1/3
f 250/1/3 248/1/3 249/1/3
f 253/2/3 252/2/3 251/2/3
f 254/2/3 252/2/3 253/2/3
f 255/2/3 252/2/3 254/2/3
f 256/4/3 255/4/3 254/4/3
f 257/2/3 252/2/3 255/2/3
f 257/4/3 255/4/3 256/4/3
f 258/2/3 257/2/3 256/2/3
f 259/2/3 252/2/3 257/2/3
f 259/2/3 257/2/3 258/2/3
f 261/4/3 259/4/3 258/4/3
f 262/2/3 252/2/3 259/2/3
f 262/4/3 259/4/3 261/4/3
f 263/2/3 261/2/3 260/2/3
f 263/2/3 262/2/3 261/2/3
f 264/2/3 252/2/3 262/2/3
f 264/2/3 262/2/3 263/2/3
f 267/2/3 266/2/3 265/2/3
f 268/2/3 266/2/3 267/2/3
f 269/2/3 266/2/3 268/2/3
f 271/1/3 269/1/3 268/1/3
f 272/1/3 269/1/3 271/1/3
f 273/2/3 271/2/3 270/2/3
f 273/2/3 272/2/3 271/2/3
f 274/2/3 272/2/3 273/2/3
f 277/2/3 276/2/3 275/2/3
f 278/2/3 276/2/3 277/2/3
f 283/1/3 280/1/3 279/1/3
f 284/1/3 280/1/3 283/1/3
f 287/2/3 282/2/3 281/2/3
f 288/2/3 282/2/3 287/2/3
f 289/2/3 282/2/3 288/2/3
f 291/2/3 286/2/3 285/2/3
f 292/2/3 286/2/3 291/2/3
f 296/1/3 290/1/3 289/1/3
f 297/1/3 290/1/3 296/1/3
f 298/2/3 294/2/3 293/2/3
f 299/2/3 294/2/3 298/2/3
f 300/2/3 296/2/3 295/2/3
f 301/2/3 296/2/3 300/2/3
f 303/2/3 294/2/3 299/2/3
f 308/2/3 303/2/3 302/2/3
f 309/2/3 294/2/3 303/2/3
f 309/2/3 303/2/3 308/2/3
f 310/2/3 305/2/3 304/2/3
f 311/2/3 305/2/3 310/2/3
f 315/2/3 307/2/3 306/2/3
f 316/2/3 307/2/3 315/2/3
f 319/1/3 312/1/3 311/1/3
f 320/1/3 312/1/3 319/1/3
f 321/1/3 314/1/3 313/1/3
f 322/1/3 314/1/3 321/1/3
f 323/2/3 318/2/3 317/2/3
f 323/2/3 319/2/3 318/2/3
f 324/2/3 319/2/3 323/2/3
f 329/2/3 328/2/3 327/2/3
f 330/2/3 328/2/3 329/2/3
f 333/2/3 332/2/3 331/2/3
f 334/2/3 332/2/3 333/2/3
f 337/2/3 326/2/3 325/2/3
f 338/2/3 326/2/3 337/2/3
f 339/2/3 336/2/3 335/2/3
f 340/2/3 336/2/3 339/2/3
f 343/2/3 342/2/3 341/2/3
f 344/2/3 342/2/3 343/2/3
f 347/2/3 346/2/3 345/2/3
f 348/2/3 346/2/3 347/2/3
f 352/2/3 350/2/3 349/2/3
f 352/2/3 351/2/3 350/2/3
f 353/2/3 351/2/3 352/2/3
f 354/2/3 351/2/3 353/2/3
f 357/2/3 356/2/3 355/2/3
f 358/2/3 356/2/3 357/2/3
f 361/2/3 360/2/3 359/2/3
f 362/2/3 360/2/3 361/2/3
f 364/3/4 365/3/4 367/3/4
f 365/4/4 366/4/4 367/4/4
f 367/4/4 366/4/4 368/4/4
f 364/3/4 367/3/4 369/3/4
f 367/2/4 368/2/4 369/2/4
f 369/2/4 368/2/4 370/2/4
f 363/1/4 364/1/4 371/1/4
f 364/3/4 369/3/4 372/3/4
f 371/1/4 364/1/4 372/1/4
f 369/4/4 370/4/4 373/4/4
f 372/3/4 369/3/4 373/3/4
f 373/4/4 370/4/4 374/4/4
f 375/2/4 376/2/4 377/2/4
f 377/2/4 376/2/4 378/2/4
f 378/2/4 376/2/4 379/2/4
f 380/1/4 381/1/4 382/1/4
f 382/1/4 381/1/4 383/1/4
f 384/1/4 385/1/4 389/1/4
f 389/1/4 385/1/4 390/1/4
f 387/2/4 388/2/4 391/2/4
f 386/2/4 387/2/4 391/2/4
f 391/2/4 388/2/4 392/2/4
f 393/2/4 394/2/4 395/2/4
f 395/2/4 394/2/4 396/2/4
f 397/2/4 398/2/4 400/2/4
f 398/2/4 399/2/4 400/2/4
f 400/2/4 399/2/4 401/2/4
f 401/2/4 399/2/4 402/2/4
f 403/2/4 404/2/4 405/2/4
f 405/2/4 404/2/4 406/2/4
f 407/2/4 408/2/4 410/2/4
f 410/2/4 408/2/4 411/2/4
f 409/2/4 410/2/4 415/2/4
f 415/2/4 410/2/4 416/2/4
f 413/1/4 414/1/4 418/1/4
f 412/2/4 413/2/4 418/2/4
f 418/1/4 414/1/4 419/1/4
f 416/2/4 417/2/4 420/2/4
f 415/2/4 416/2/4 420/2/4
f 420/2/4 417/2/4 421/2/4
f 412/2/4 418/2/4 422/2/4
f 415/2/4 420/2/4 424/2/4
f 412/2/4 422/2/4 426/2/4
f 422/1/4 423/1/4 427/1/4
f 426/2/4 422/2/4 427/2/4
f 427/1/4 423/1/4 428/1/4
f 424/2/4 425/2/4 429/2/4
f 415/2/4 424/2/4 429/2/4
f 429/2/4 425/2/4 430/2/4
f 430/2/4 425/2/4 431/2/4
f 429/2/4 430/2/4 432/2/4
f 432/2/4 430/2/4 433/2/4
f 433/2/4 434/2/4 435/2/4
f 435/2/4 434/2/4 436/2/4
f 437/2/4 438/2/4 442/2/4
f 442/2/4 438/2/4 443/2/4
f 439/2/4 440/2/4 444/2/4
f 440/1/4 441/1/4 445/1/4
f 444/2/4 440/2/4 445/2/4
f 445/1/4 441/1/4 446/1/4
f 437/2/4 442/2/4 447/2/4
f 437/2/4 447/2/4 452/2/4
f 447/2/4 448/2/4 452/2/4
f 452/2/4 448/2/4 453/2/4
f 449/2/4 450/2/4 454/2/4
f 450/1/4 451/1/4 455/1/4
f 454/2/4 450/2/4 455/2/4
f 455/1/4 451/1/4 456/1/4
f 457/2/4 458/2/4 459/2/4
f 459/2/4 458/2/4 460/2/4
f 460/2/4 458/2/4 461/2/4
f 462/2/4 463/2/4 464/2/4
f 464/2/4 463/2/4 465/2/4
f 466/2/4 467/2/4 469/2/4
f 467/2/4 468/2/4 469/2/4
f 469/2/4 468/2/4 470/2/4
f 471/2/4 472/2/4 473/2/4
f 473/2/4 472/2/4 474/2/4
f 474/2/4 472/2/4 475/2/4
f 475/2/4 476/2/4 477/2/4
f 474/2/4 475/2/4 477/2/4
f 477/2/4 476/2/4 478/2/4
f 474/2/4 477/2/4 479/2/4
f 474/2/4 479/2/4 482/2/4
f 479/2/4 480/2/4 482/2/4
f 482/2/4 480/2/4 483/2/4
f 483/2/4 480/2/4 484/2/4
f 481/2/4 482/2/4 485/2/4
f 482/2/4 483/2/4 485/2/4
f 485/2/4 483/2/4 486/2/4
f 487/1/4 488/1/4 489/1/4
f 489/1/4 488/1/4 490/1/4
f 495/2/5 492/2/5 491/2/5
f 496/2/5 492/2/5 495/2/5
f 497/2/5 494/2/5 493/2/5
f 498/2/5 494/2/5 497/2/5
f 503/1/5 500/1/5 499/1/5
f 504/1/5 500/1/5 503/1/5
f 505/1/5 502/1/5 501/1/5
f 506/1/5 502/1/5 505/1/5
f 507/2/5 504/2/5 503/2/5
f 508/2/5 504/2/5 507/2/5
f 509/2/5 506/2/5 505/2/5
f 510/2/5 506/2/5 509/2/5
f 513/2/5 512/2/5 511/2/5
f 514/2/5 512/2/5 513/2/5
f 518/2/5 516/2/5 515/2/5
f 519/2/5 516/2/5 518/2/5
f 521/2/5 518/2/5 517/2/5
f 522/2/5 518/2/5 521/2/5
f 523/2/5 520/2/5 519/2/5
f 524/2/5 520/2/5 523/2/5
f 528/2/5 526/2/5 525/2/5
f 529/2/5 526/2/5 528/2/5
f 531/2/5 528/2/5 527/2/5
f 531/2/5 530/2/5 529/2/5
f 531/2/5 529/2/5 528/2/5
f 532/2/5 530/2/5 531/2/5
f 536/1/5 534/1/5 533/1/5
f 537/1/5 534/1/5 536/1/5
f 539/2/5 536/2/5 535/2/5
f 540/2/5 536/2/5 539/2/5
f 541/2/5 538/2/5 537/2/5
f 542/2/5 538/2/5 541/2/5
f 547/2/5 544/2/5 543/2/5
f 548/2/5 546/2/5 545/2/5
f 549/2/5 547/2/5 543/2/5
f 550/2/5 547/2/5 549/2/5
f 551/2/5 546/2/5 548/2/5
f 552/2/5 546/2/5 551/2/5
f 553/2/5 551/2/5 550/2/5
f 554/2/5 551/2/5 553/2/5
f 559/2/5 556/2/5 555/2/5
f 559/2/5 558/2/5 557/2/5
f 559/2/5 557/2/5 556/2/5
f 560/2/5 558/2/5 559/2/5
f 563/1/5 562/1/5 561/1/5
f 564/1/5 562/1/5 563/1/5
f 568/1/5 566/1/5 565/1/5
f 569/1/5 566/1/5 568/1/5
f 571/2/5 568/2/5 567/2/5
f 572/1/5 569/1/5 568/1/5
f 572/2/5 568/2/5 571/2/5
f 573/2/5 570/2/5 569/2/5
f 573/1/5 569/1/5 572/1/5
f 574/2/5 570/2/5 573/2/5
f 581/2/5 576/2/5 575/2/5
f 582/2/5 576/2/5 581/2/5
f 583/2/5 578/2/5 577/2/5
f 584/2/5 578/2/5 583/2/5
f 585/2/5 580/2/5 579/2/5
f 586/2/5 580/2/5 585/2/5
f 593/2/5 588/2/5 587/2/5
f 593/2/5 589/2/5 588/2/5
f 593/2/5 590/2/5 589/2/5
f 594/2/5 590/2/5 593/2/5
f 597/2/5 592/2/5 591/2/5
f 598/2/5 592/2/5 597/2/5
f 601/2/5 596/2/5 595/2/5
f 602/2/5 596/2/5 601/2/5
f 603/2/5 599/2/5 598/2/5
f 604/2/5 599/2/5 603/2/5
f 605/2/5 601/2/5 600/2/5
f 606/2/5 601/2/5 605/2/5
f 611/1/5 608/1/5 607/1/5
f 612/1/5 608/1/5 611/1/5
f 613/1/5 610/1/5 609/1/5
f 614/1/5 610/1/5 613/1/5
f 615/1/6 616/1/6 619/1/6
f 619/1/6 616/1/6 620/1/6
f 617/1/6 618/1/6 621/1/6
f 621/1/6 618/1/6 622/1/6
f 619/2/6 620/2/6 623/2/6
f 623/2/6 620/2/6 624/2/6
f 621/2/6 622/2/6 625/2/6
f 625/2/6 622/2/6 626/2/6
f 627/2/6 628/2/6 629/2/6
f 629/2/6 628/2/6 630/2/6
f 631/2/6 632/2/6 633/2/6
f 633/2/6 632/2/6 634/2/6
f 635/2/6 636/2/6 640/2/6
f 640/2/6 636/2/6 641/2/6
f 637/2/6 638/2/6 642/2/6
f 642/2/6 638/2/6 643/2/6
f 639/2/6 640/2/6 646/2/6
f 643/2/6 644/2/6 647/2/6
f 645/2/6 646/2/6 649/2/6
f 646/2/6 640/2/6 650/2/6
f 649/2/6 646/2/6 650/2/6
f 647/2/6 648/2/6 651/2/6
f 643/2/6 647/2/6 651/2/6
f 651/2/6 648/2/6 652/2/6
f 650/2/6 640/2/6 653/2/6
f 653/2/6 640/2/6 654/2/6
f 643/2/6 651/2/6 655/2/6
f 655/2/6 651/2/6 656/2/6
f 657/1/6 658/1/6 659/1/6
f 659/1/6 658/1/6 660/1/6
f 660/1/6 658/1/6 661/1/6
f 661/1/6 658/1/6 662/1/6
f 660/2/6 661/2/6 663/2/6
f 663/2/6 661/2/6 664/2/6
f 665/2/6 666/2/6 667/2/6
f 667/2/6 666/2/6 668/2/6
f 668/2/6 666/2/6 669/2/6
f 669/2/6 666/2/6 670/2/6
f 668/1/6 669/1/6 671/1/6
f 671/1/6 669/1/6 672/1/6
f 673/1/6 674/1/6 675/1/6
f 675/1/6 674/1/6 676/1/6
f 676/1/6 674/1/6 677/1/6
f 677/1/6 674/1/6 678/1/6
f 679/2/6 680/2/6 681/2/6
f 681/2/6 680/2/6 682/2/6
f 682/2/6 680/2/6 683/2/6
f 683/2/6 680/2/6 684/2/6
f 684/2/6 680/2/6 685/2/6
f 685/2/6 680/2/6 686/2/6
f 681/2/6 682/2/6 687/2/6
f 687/2/6 682/2/6 688/2/6
f 683/2/6 684/2/6 689/2/6
f 689/2/6 684/2/6 690/2/6
f 685/2/6 686/2/6 691/2/6
f 691/2/6 686/2/6 692/2/6
f 693/2/6 694/2/6 701/2/6
f 701/2/6 694/2/6 702/2/6
f 695/2/6 696/2/6 703/2/6
f 703/2/6 696/2/6 704/2/6
f 697/2/6 698/2/6 705/2/6
f 705/2/6 698/2/6 706/2/6
f 699/2/6 700/2/6 707/2/6
f 707/2/6 700/2/6 708/2/6
f 709/1/6 710/1/6 713/1/6
f 713/1/6 710/1/6 714/1/6
f 711/1/6 712/1/6 715/1/6
f 715/1/6 712/1/6 716/1/6
