# MagicaVoxel @ Ephtracy

# group
o 

# material
mtllib morkva.mtl
usemtl palette

# normals
vn -1 0 0
vn 1 0 0
vn 0 0 1
vn 0 0 -1
vn 0 -1 0
vn 0 1 0

# texcoords
vt 0.115234 0.5
vt 0.748047 0.5
vt 0.841797 0.5

# verts
v 0 0.1 0
v 0 0.1 -0.6
v 0 0.3 0
v 0 0.3 -0.1
v 0 0.4 0
v 0 0.4 -0.1
v 0 0.4 -0.4
v 0 0.4 -0.5
v 0 0.5 -0.2
v 0 0.5 -0.4
v 0 0.5 -0.5
v 0 0.6 0
v 0 0.6 -0.1
v 0 0.6 -0.2
v 0 0.6 -0.4
v 0 0.7 0
v 0 0.7 -0.1
v 0 0.8 0
v 0 0.8 -0.6
v 0.1 0.9 -0.2
v 0.1 0.9 -0.3
v 0.1 1 -0.2
v 0.1 1 -0.3
v 0.2 0.8 -0.2
v 0.2 0.8 -0.4
v 0.2 0.9 -0.2
v 0.2 0.9 -0.3
v 0.2 0.9 -0.4
v 0.2 0.9 -0.5
v 0.2 1 -0.3
v 0.2 1 -0.5
v 0.3 0.9 -0.1
v 0.3 0.9 -0.2
v 0.3 1 -0.1
v 0.3 1 -0.2
v 0.3 0.9 -0.4
v 0.3 0.9 -0.5
v 0.3 1 -0.4
v 0.3 1 -0.5
v 0.4 0.8 -0.2
v 0.4 0.8 -0.4
v 0.4 0.9 -0.1
v 0.4 0.9 -0.2
v 0.4 0.9 -0.3
v 0.4 0.9 -0.4
v 0.4 1 -0.1
v 0.4 1 -0.3
v 0.5 0.9 -0.3
v 0.5 0.9 -0.4
v 0.5 1 -0.3
v 0.5 1 -0.4
v 0.6 0.1 0
v 0.6 0.1 -0.6
v 0.6 0.3 -0.2
v 0.6 0.3 -0.4
v 0.6 0.4 -0.2
v 0.6 0.4 -0.4
v 0.6 0.5 0
v 0.6 0.5 -0.1
v 0.6 0.6 0
v 0.6 0.6 -0.1
v 0.6 0.6 -0.3
v 0.6 0.6 -0.5
v 0.6 0.7 -0.3
v 0.6 0.7 -0.5
v 0.6 0.8 0
v 0.6 0.8 -0.6
v 0 0.1 0
v 0 0.3 0
v 0 0.4 0
v 0 0.6 0
v 0 0.7 0
v 0 0.8 0
v 0.2 0.3 0
v 0.2 0.4 0
v 0.2 0.6 0
v 0.2 0.7 0
v 0.4 0.5 0
v 0.4 0.6 0
v 0.6 0.1 0
v 0.6 0.5 0
v 0.6 0.6 0
v 0.6 0.8 0
v 0.3 0.9 -0.1
v 0.3 1 -0.1
v 0.4 0.9 -0.1
v 0.4 1 -0.1
v 0.1 0.9 -0.2
v 0.1 1 -0.2
v 0.2 0.8 -0.2
v 0.2 0.9 -0.2
v 0.3 0.9 -0.2
v 0.3 1 -0.2
v 0.4 0.8 -0.2
v 0.4 0.9 -0.2
v 0.4 0.9 -0.3
v 0.4 1 -0.3
v 0.5 0.9 -0.3
v 0.5 1 -0.3
v 0.1 0.9 -0.3
v 0.1 1 -0.3
v 0.2 0.9 -0.3
v 0.2 1 -0.3
v 0.2 0.8 -0.4
v 0.2 0.9 -0.4
v 0.3 0.9 -0.4
v 0.3 1 -0.4
v 0.4 0.8 -0.4
v 0.4 0.9 -0.4
v 0.5 0.9 -0.4
v 0.5 1 -0.4
v 0.2 0.9 -0.5
v 0.2 1 -0.5
v 0.3 0.9 -0.5
v 0.3 1 -0.5
v 0 0.1 -0.6
v 0 0.8 -0.6
v 0.1 0.6 -0.6
v 0.1 0.7 -0.6
v 0.3 0.4 -0.6
v 0.3 0.5 -0.6
v 0.3 0.6 -0.6
v 0.3 0.7 -0.6
v 0.5 0.4 -0.6
v 0.5 0.5 -0.6
v 0.6 0.1 -0.6
v 0.6 0.8 -0.6
v 0 0.1 0
v 0.6 0.1 0
v 0 0.1 -0.6
v 0.6 0.1 -0.6
v 0.3 0.9 -0.1
v 0.4 0.9 -0.1
v 0.1 0.9 -0.2
v 0.2 0.9 -0.2
v 0.3 0.9 -0.2
v 0.4 0.9 -0.2
v 0.1 0.9 -0.3
v 0.2 0.9 -0.3
v 0.4 0.9 -0.3
v 0.5 0.9 -0.3
v 0.2 0.9 -0.4
v 0.3 0.9 -0.4
v 0.4 0.9 -0.4
v 0.5 0.9 -0.4
v 0.2 0.9 -0.5
v 0.3 0.9 -0.5
v 0 0.8 0
v 0.6 0.8 0
v 0.2 0.8 -0.2
v 0.4 0.8 -0.2
v 0.2 0.8 -0.4
v 0.4 0.8 -0.4
v 0 0.8 -0.6
v 0.6 0.8 -0.6
v 0.3 1 -0.1
v 0.4 1 -0.1
v 0.1 1 -0.2
v 0.3 1 -0.2
v 0.1 1 -0.3
v 0.2 1 -0.3
v 0.4 1 -0.3
v 0.5 1 -0.3
v 0.3 1 -0.4
v 0.5 1 -0.4
v 0.2 1 -0.5
v 0.3 1 -0.5

# faces
f 3/1/1 2/1/1 1/1/1
f 4/1/1 2/1/1 3/1/1
f 5/3/1 4/3/1 3/3/1
f 6/1/1 2/1/1 4/1/1
f 6/3/1 4/3/1 5/3/1
f 7/1/1 2/1/1 6/1/1
f 8/1/1 2/1/1 7/1/1
f 9/1/1 6/1/1 5/1/1
f 9/1/1 7/1/1 6/1/1
f 10/3/1 8/3/1 7/3/1
f 10/1/1 7/1/1 9/1/1
f 11/1/1 2/1/1 8/1/1
f 11/3/1 8/3/1 10/3/1
f 12/1/1 9/1/1 5/1/1
f 13/1/1 9/1/1 12/1/1
f 14/3/1 10/3/1 9/3/1
f 14/1/1 9/1/1 13/1/1
f 15/1/1 11/1/1 10/1/1
f 15/3/1 10/3/1 14/3/1
f 16/3/1 13/3/1 12/3/1
f 17/1/1 14/1/1 13/1/1
f 17/3/1 13/3/1 16/3/1
f 17/1/1 15/1/1 14/1/1
f 18/1/1 17/1/1 16/1/1
f 19/1/1 11/1/1 15/1/1
f 19/1/1 17/1/1 18/1/1
f 19/1/1 2/1/1 11/1/1
f 19/1/1 15/1/1 17/1/1
f 22/2/1 21/2/1 20/2/1
f 23/2/1 21/2/1 22/2/1
f 26/2/1 25/2/1 24/2/1
f 27/2/1 25/2/1 26/2/1
f 28/2/1 25/2/1 27/2/1
f 30/2/1 29/2/1 28/2/1
f 30/2/1 28/2/1 27/2/1
f 31/2/1 29/2/1 30/2/1
f 34/2/1 33/2/1 32/2/1
f 35/2/1 33/2/1 34/2/1
f 36/2/2 37/2/2 38/2/2
f 38/2/2 37/2/2 39/2/2
f 40/2/2 41/2/2 43/2/2
f 43/2/2 41/2/2 44/2/2
f 44/2/2 41/2/2 45/2/2
f 42/2/2 43/2/2 46/2/2
f 43/2/2 44/2/2 46/2/2
f 46/2/2 44/2/2 47/2/2
f 48/2/2 49/2/2 50/2/2
f 50/2/2 49/2/2 51/2/2
f 52/1/2 53/1/2 54/1/2
f 54/1/2 53/1/2 55/1/2
f 52/1/2 54/1/2 56/1/2
f 54/3/2 55/3/2 56/3/2
f 55/1/2 53/1/2 57/1/2
f 56/3/2 55/3/2 57/3/2
f 52/1/2 56/1/2 58/1/2
f 56/1/2 57/1/2 58/1/2
f 58/1/2 57/1/2 59/1/2
f 58/3/2 59/3/2 60/3/2
f 59/1/2 57/1/2 61/1/2
f 60/3/2 59/3/2 61/3/2
f 61/1/2 57/1/2 62/1/2
f 57/1/2 53/1/2 63/1/2
f 62/1/2 57/1/2 63/1/2
f 61/1/2 62/1/2 64/1/2
f 60/1/2 61/1/2 64/1/2
f 62/3/2 63/3/2 64/3/2
f 63/1/2 53/1/2 65/1/2
f 64/3/2 63/3/2 65/3/2
f 60/1/2 64/1/2 66/1/2
f 64/1/2 65/1/2 66/1/2
f 65/1/2 53/1/2 67/1/2
f 66/1/2 65/1/2 67/1/2
f 74/1/3 69/1/3 68/1/3
f 74/3/3 70/3/3 69/3/3
f 75/1/3 71/1/3 70/1/3
f 75/3/3 70/3/3 74/3/3
f 76/3/3 72/3/3 71/3/3
f 76/1/3 71/1/3 75/1/3
f 77/1/3 73/1/3 72/1/3
f 77/3/3 72/3/3 76/3/3
f 78/1/3 76/1/3 75/1/3
f 78/1/3 75/1/3 74/1/3
f 78/1/3 77/1/3 76/1/3
f 79/1/3 77/1/3 78/1/3
f 80/1/3 74/1/3 68/1/3
f 80/1/3 78/1/3 74/1/3
f 81/3/3 79/3/3 78/3/3
f 81/1/3 78/1/3 80/1/3
f 82/1/3 77/1/3 79/1/3
f 82/3/3 79/3/3 81/3/3
f 83/1/3 73/1/3 77/1/3
f 83/1/3 77/1/3 82/1/3
f 86/2/3 85/2/3 84/2/3
f 87/2/3 85/2/3 86/2/3
f 91/2/3 89/2/3 88/2/3
f 92/2/3 89/2/3 91/2/3
f 92/2/3 91/2/3 90/2/3
f 93/2/3 89/2/3 92/2/3
f 94/2/3 92/2/3 90/2/3
f 95/2/3 92/2/3 94/2/3
f 98/2/3 97/2/3 96/2/3
f 99/2/3 97/2/3 98/2/3
f 100/2/4 101/2/4 102/2/4
f 102/2/4 101/2/4 103/2/4
f 104/2/4 105/2/4 106/2/4
f 104/2/4 106/2/4 108/2/4
f 106/2/4 107/2/4 108/2/4
f 108/2/4 107/2/4 109/2/4
f 109/2/4 107/2/4 110/2/4
f 110/2/4 107/2/4 111/2/4
f 112/2/4 113/2/4 114/2/4
f 114/2/4 113/2/4 115/2/4
f 116/1/4 117/1/4 118/1/4
f 118/1/4 117/1/4 119/1/4
f 116/1/4 118/1/4 120/1/4
f 120/1/4 118/1/4 121/1/4
f 118/3/4 119/3/4 122/3/4
f 121/1/4 118/1/4 122/1/4
f 119/1/4 117/1/4 123/1/4
f 122/3/4 119/3/4 123/3/4
f 120/3/4 121/3/4 124/3/4
f 116/1/4 120/1/4 124/1/4
f 121/1/4 122/1/4 125/1/4
f 124/3/4 121/3/4 125/3/4
f 122/1/4 123/1/4 125/1/4
f 116/1/4 124/1/4 126/1/4
f 124/1/4 125/1/4 126/1/4
f 125/1/4 123/1/4 127/1/4
f 126/1/4 125/1/4 127/1/4
f 123/1/4 117/1/4 127/1/4
f 130/1/5 129/1/5 128/1/5
f 131/1/5 129/1/5 130/1/5
f 136/2/5 133/2/5 132/2/5
f 137/2/5 133/2/5 136/2/5
f 138/2/5 135/2/5 134/2/5
f 139/2/5 135/2/5 138/2/5
f 144/2/5 141/2/5 140/2/5
f 145/2/5 141/2/5 144/2/5
f 146/2/5 143/2/5 142/2/5
f 147/2/5 143/2/5 146/2/5
f 148/1/6 149/1/6 150/1/6
f 150/1/6 149/1/6 151/1/6
f 148/1/6 150/1/6 152/1/6
f 151/1/6 149/1/6 153/1/6
f 148/1/6 152/1/6 154/1/6
f 152/1/6 153/1/6 154/1/6
f 153/1/6 149/1/6 155/1/6
f 154/1/6 153/1/6 155/1/6
f 156/2/6 157/2/6 159/2/6
f 158/2/6 159/2/6 160/2/6
f 160/2/6 159/2/6 161/2/6
f 159/2/6 157/2/6 162/2/6
f 161/2/6 159/2/6 162/2/6
f 162/2/6 163/2/6 164/2/6
f 161/2/6 162/2/6 164/2/6
f 164/2/6 163/2/6 165/2/6
f 161/2/6 164/2/6 166/2/6
f 166/2/6 164/2/6 167/2/6
