# MagicaVoxel @ Ephtracy

# group
o 

# material
mtllib pustazemlya.mtl
usemtl palette

# normals
vn -1 0 0
vn 1 0 0
vn 0 0 1
vn 0 0 -1
vn 0 -1 0
vn 0 1 0

# texcoords
vt 0.0449219 0.5
vt 0.0683594 0.5
vt 0.748047 0.5

# verts
v 0 0.1 0
v 0 0.1 -1.2
v 0 0.2 0
v 0 0.2 -1.2
v 0 0.3 0
v 0 0.3 -1.2
v 0.9 0.2 -0.3
v 0.9 0.2 -0.5
v 0.9 0.2 -0.6
v 0.9 0.2 -0.9
v 0.9 0.3 -0.3
v 0.9 0.3 -0.5
v 0.9 0.3 -0.6
v 0.9 0.3 -0.9
v 0.3 0.2 -0.3
v 0.3 0.2 -0.9
v 0.3 0.3 -0.3
v 0.3 0.3 -0.9
v 1.2 0.1 0
v 1.2 0.1 -1.2
v 1.2 0.2 0
v 1.2 0.2 -0.2
v 1.2 0.2 -0.4
v 1.2 0.2 -1.2
v 1.2 0.3 0
v 1.2 0.3 -0.2
v 1.2 0.3 -0.4
v 1.2 0.3 -1.2
v 0 0.1 0
v 0 0.2 0
v 0 0.3 0
v 0.7 0.2 0
v 0.7 0.3 0
v 0.8 0.2 0
v 0.8 0.3 0
v 1.2 0.1 0
v 1.2 0.2 0
v 1.2 0.3 0
v 0.3 0.2 -0.9
v 0.3 0.3 -0.9
v 0.9 0.2 -0.9
v 0.9 0.3 -0.9
v 0.3 0.2 -0.3
v 0.3 0.3 -0.3
v 0.9 0.2 -0.3
v 0.9 0.3 -0.3
v 0 0.1 -1.2
v 0 0.2 -1.2
v 0 0.3 -1.2
v 1.2 0.1 -1.2
v 1.2 0.2 -1.2
v 1.2 0.3 -1.2
v 0 0.1 0
v 1.2 0.1 0
v 0.3 0.1 -0.3
v 0.9 0.1 -0.3
v 0.3 0.1 -0.9
v 0.9 0.1 -0.9
v 0 0.1 -1.2
v 1.2 0.1 -1.2
v 0.3 0.2 -0.3
v 0.9 0.2 -0.3
v 0.9 0.2 -0.5
v 0.9 0.2 -0.6
v 0.3 0.2 -0.9
v 0.9 0.2 -0.9
v 0 0.3 0
v 0.7 0.3 0
v 0.8 0.3 0
v 1.2 0.3 0
v 0.2 0.3 -0.1
v 0.4 0.3 -0.1
v 0.7 0.3 -0.1
v 0.8 0.3 -0.1
v 0.2 0.3 -0.2
v 0.4 0.3 -0.2
v 1.1 0.3 -0.2
v 1.2 0.3 -0.2
v 0.1 0.3 -0.3
v 0.2 0.3 -0.3
v 0.3 0.3 -0.3
v 0.9 0.3 -0.3
v 0.1 0.3 -0.4
v 0.2 0.3 -0.4
v 1.1 0.3 -0.4
v 1.2 0.3 -0.4
v 0.9 0.3 -0.5
v 1 0.3 -0.5
v 0.9 0.3 -0.6
v 1 0.3 -0.6
v 0.1 0.3 -0.7
v 0.2 0.3 -0.7
v 0.1 0.3 -0.8
v 0.2 0.3 -0.8
v 1 0.3 -0.8
v 1.1 0.3 -0.8
v 0.3 0.3 -0.9
v 0.9 0.3 -0.9
v 1 0.3 -0.9
v 1.1 0.3 -0.9
v 0.1 0.3 -1
v 0.2 0.3 -1
v 0.4 0.3 -1
v 0.5 0.3 -1
v 0.8 0.3 -1
v 0.9 0.3 -1
v 0.1 0.3 -1.1
v 0.2 0.3 -1.1
v 0.4 0.3 -1.1
v 0.5 0.3 -1.1
v 0.8 0.3 -1.1
v 0.9 0.3 -1.1
v 0 0.3 -1.2
v 1.2 0.3 -1.2

# faces
f 3/1/1 2/1/1 1/1/1
f 4/1/1 2/1/1 3/1/1
f 5/2/1 4/2/1 3/2/1
f 6/2/1 4/2/1 5/2/1
f 11/2/1 8/2/1 7/2/1
f 12/3/1 9/3/1 8/3/1
f 12/2/1 8/2/1 11/2/1
f 13/2/1 10/2/1 9/2/1
f 13/3/1 9/3/1 12/3/1
f 14/2/1 10/2/1 13/2/1
f 15/2/2 16/2/2 17/2/2
f 17/2/2 16/2/2 18/2/2
f 19/1/2 20/1/2 21/1/2
f 21/1/2 20/1/2 22/1/2
f 22/1/2 20/1/2 23/1/2
f 23/1/2 20/1/2 24/1/2
f 21/2/2 22/2/2 25/2/2
f 22/3/2 23/3/2 26/3/2
f 25/2/2 22/2/2 26/2/2
f 23/2/2 24/2/2 27/2/2
f 26/3/2 23/3/2 27/3/2
f 27/2/2 24/2/2 28/2/2
f 32/1/3 30/1/3 29/1/3
f 32/2/3 31/2/3 30/2/3
f 33/2/3 31/2/3 32/2/3
f 34/1/3 32/1/3 29/1/3
f 34/3/3 33/3/3 32/3/3
f 35/3/3 33/3/3 34/3/3
f 36/1/3 34/1/3 29/1/3
f 37/2/3 35/2/3 34/2/3
f 37/1/3 34/1/3 36/1/3
f 38/2/3 35/2/3 37/2/3
f 41/2/3 40/2/3 39/2/3
f 42/2/3 40/2/3 41/2/3
f 43/2/4 44/2/4 45/2/4
f 45/2/4 44/2/4 46/2/4
f 47/1/4 48/1/4 50/1/4
f 48/2/4 49/2/4 51/2/4
f 50/1/4 48/1/4 51/1/4
f 51/2/4 49/2/4 52/2/4
f 55/1/5 54/1/5 53/1/5
f 56/1/5 54/1/5 55/1/5
f 57/1/5 55/1/5 53/1/5
f 57/2/5 56/2/5 55/2/5
f 58/1/5 54/1/5 56/1/5
f 58/2/5 56/2/5 57/2/5
f 59/1/5 57/1/5 53/1/5
f 59/1/5 58/1/5 57/1/5
f 60/1/5 54/1/5 58/1/5
f 60/1/5 58/1/5 59/1/5
f 61/2/6 62/2/6 63/2/6
f 61/2/6 63/2/6 64/2/6
f 61/2/6 64/2/6 65/2/6
f 65/2/6 64/2/6 66/2/6
f 67/2/6 68/2/6 71/2/6
f 71/2/6 68/2/6 72/2/6
f 68/3/6 69/3/6 73/3/6
f 72/2/6 68/2/6 73/2/6
f 69/2/6 70/2/6 74/2/6
f 73/3/6 69/3/6 74/3/6
f 71/3/6 72/3/6 75/3/6
f 67/2/6 71/2/6 75/2/6
f 72/2/6 73/2/6 76/2/6
f 75/3/6 72/3/6 76/3/6
f 73/2/6 74/2/6 76/2/6
f 74/2/6 70/2/6 77/2/6
f 76/2/6 74/2/6 77/2/6
f 77/2/6 70/2/6 78/2/6
f 67/2/6 75/2/6 79/2/6
f 75/2/6 76/2/6 79/2/6
f 76/2/6 77/2/6 79/2/6
f 79/2/6 77/2/6 80/2/6
f 80/2/6 77/2/6 81/2/6
f 81/2/6 77/2/6 82/2/6
f 67/2/6 79/2/6 83/2/6
f 79/3/6 80/3/6 83/3/6
f 80/2/6 81/2/6 84/2/6
f 83/3/6 80/3/6 84/3/6
f 77/3/6 78/3/6 85/3/6
f 82/2/6 77/2/6 85/2/6
f 85/3/6 78/3/6 86/3/6
f 82/2/6 85/2/6 87/2/6
f 85/2/6 86/2/6 87/2/6
f 87/2/6 86/2/6 88/2/6
f 87/3/6 88/3/6 89/3/6
f 88/2/6 86/2/6 90/2/6
f 89/3/6 88/3/6 90/3/6
f 83/2/6 84/2/6 91/2/6
f 67/2/6 83/2/6 91/2/6
f 84/2/6 81/2/6 92/2/6
f 91/2/6 84/2/6 92/2/6
f 67/2/6 91/2/6 93/2/6
f 91/3/6 92/3/6 93/3/6
f 92/2/6 81/2/6 94/2/6
f 93/3/6 92/3/6 94/3/6
f 90/2/6 86/2/6 95/2/6
f 89/2/6 90/2/6 95/2/6
f 95/2/6 86/2/6 96/2/6
f 94/2/6 81/2/6 97/2/6
f 93/2/6 94/2/6 97/2/6
f 89/2/6 95/2/6 98/2/6
f 95/3/6 96/3/6 99/3/6
f 98/2/6 95/2/6 99/2/6
f 96/2/6 86/2/6 100/2/6
f 99/3/6 96/3/6 100/3/6
f 67/2/6 93/2/6 101/2/6
f 98/2/6 99/2/6 101/2/6
f 99/2/6 100/2/6 101/2/6
f 97/2/6 98/2/6 101/2/6
f 93/2/6 97/2/6 101/2/6
f 101/2/6 100/2/6 102/2/6
f 102/2/6 100/2/6 103/2/6
f 103/2/6 100/2/6 104/2/6
f 104/2/6 100/2/6 105/2/6
f 105/2/6 100/2/6 106/2/6
f 67/2/6 101/2/6 107/2/6
f 101/3/6 102/3/6 107/3/6
f 102/2/6 103/2/6 108/2/6
f 107/3/6 102/3/6 108/3/6
f 103/3/6 104/3/6 109/3/6
f 108/2/6 103/2/6 109/2/6
f 104/2/6 105/2/6 110/2/6
f 109/3/6 104/3/6 110/3/6
f 105/3/6 106/3/6 111/3/6
f 110/2/6 105/2/6 111/2/6
f 106/2/6 100/2/6 112/2/6
f 111/3/6 106/3/6 112/3/6
f 110/2/6 111/2/6 113/2/6
f 109/2/6 110/2/6 113/2/6
f 111/2/6 112/2/6 113/2/6
f 108/2/6 109/2/6 113/2/6
f 107/2/6 108/2/6 113/2/6
f 67/2/6 107/2/6 113/2/6
f 100/2/6 86/2/6 114/2/6
f 113/2/6 112/2/6 114/2/6
f 112/2/6 100/2/6 114/2/6
