# MagicaVoxel @ Ephtracy

# group
o 

# material
mtllib untitled-2.mtl
usemtl palette

# normals
vn -1 0 0
vn 1 0 0
vn 0 0 1
vn 0 0 -1
vn 0 -1 0
vn 0 1 0

# texcoords
vt 0.373047 0.5
vt 0.958984 0.5
vt 0.962891 0.5
vt 0.994141 0.5

# verts
v -0.5 1.2 -7.45058e-009
v -0.5 1.2 -0.1
v -0.5 1.7 -7.45058e-009
v -0.5 1.7 -0.1
v -0.4 0.4 -0.1
v -0.4 0.4 -0.2
v -0.4 0.4 -0.3
v -0.4 0.4 -0.4
v -0.4 0.6 -7.45058e-009
v -0.4 0.6 -0.1
v -0.4 0.6 -0.2
v -0.4 0.6 -0.3
v -0.4 0.7 0.2
v -0.4 0.7 -7.45058e-009
v -0.4 0.7 -0.2
v -0.4 0.7 -0.4
v -0.4 0.8 -7.45058e-009
v -0.4 0.8 -0.4
v -0.4 0.9 0.3
v -0.4 0.9 0.2
v -0.4 0.9 -7.45058e-009
v -0.4 0.9 -0.1
v -0.4 1.2 -7.45058e-009
v -0.4 1.2 -0.1
v -0.4 1.2 -0.2
v -0.4 1.3 0.3
v -0.4 1.3 -7.45058e-009
v -0.4 1.7 -7.45058e-009
v -0.4 1.7 -0.1
v -0.4 1.7 -0.2
v -0.4 1.8 -7.45058e-009
v -0.4 1.8 -0.1
v -0.3 0.7 -0.4
v -0.3 0.7 -0.5
v -0.3 0.8 -7.45058e-009
v -0.3 0.8 -0.4
v -0.3 0.8 -0.5
v -0.3 0.9 0.4
v -0.3 0.9 0.3
v -0.3 0.9 -7.45058e-009
v -0.3 0.9 -0.1
v -0.3 0.9 -0.4
v -0.3 1.1 0.4
v -0.3 1.1 0.3
v -0.3 1.3 -7.45058e-009
v -0.3 1.3 -0.1
v -0.3 1.7 -7.45058e-009
v -0.3 1.7 -0.1
v -0.2 0.8 -0.4
v -0.2 0.8 -0.5
v -0.2 0.9 -0.4
v -0.2 0.9 -0.5
v -0.1 1.3 -7.45058e-009
v -0.1 1.3 -0.1
v -0.1 1.7 -7.45058e-009
v -0.1 1.7 -0.1
v -7.45058e-008 0.4 -0.3
v -7.45058e-008 0.4 -0.4
v -7.45058e-008 0.6 -0.3
v -7.45058e-008 0.6 -0.4
v -7.45058e-008 1.2 -0.1
v -7.45058e-008 1.2 -0.2
v -7.45058e-008 1.7 -7.45058e-009
v -7.45058e-008 1.7 -0.1
v -7.45058e-008 1.7 -0.2
v -7.45058e-008 1.8 -7.45058e-009
v -7.45058e-008 1.8 -0.1
v 0.0999999 1.3 -7.45058e-009
v 0.0999999 1.3 -0.1
v 0.0999999 1.7 -7.45058e-009
v 0.0999999 1.7 -0.1
v -0.4 1.3 -7.45058e-009
v -0.4 1.3 -0.1
v -0.4 1.7 -7.45058e-009
v -0.4 1.7 -0.1
v -0.3 0.4 -0.3
v -0.3 0.4 -0.4
v -0.3 0.6 -0.3
v -0.3 0.6 -0.4
v -0.3 1.2 -0.1
v -0.3 1.2 -0.2
v -0.3 1.7 -7.45058e-009
v -0.3 1.7 -0.1
v -0.3 1.7 -0.2
v -0.3 1.8 -7.45058e-009
v -0.3 1.8 -0.1
v -0.2 1.3 -7.45058e-009
v -0.2 1.3 -0.1
v -0.2 1.7 -7.45058e-009
v -0.2 1.7 -0.1
v -0.1 0.8 -0.4
v -0.1 0.8 -0.5
v -0.1 0.9 -0.4
v -0.1 0.9 -0.5
v -7.45058e-008 0.6 -0.2
v -7.45058e-008 0.6 -0.3
v -7.45058e-008 0.7 -0.2
v -7.45058e-008 0.7 -0.3
v -7.45058e-008 0.7 -0.4
v -7.45058e-008 0.7 -0.5
v -7.45058e-008 0.8 -7.45058e-009
v -7.45058e-008 0.8 -0.4
v -7.45058e-008 0.8 -0.5
v -7.45058e-008 0.9 0.4
v -7.45058e-008 0.9 0.3
v -7.45058e-008 0.9 -7.45058e-009
v -7.45058e-008 0.9 -0.1
v -7.45058e-008 0.9 -0.4
v -7.45058e-008 1.1 0.4
v -7.45058e-008 1.1 0.3
v -7.45058e-008 1.3 -7.45058e-009
v -7.45058e-008 1.3 -0.1
v -7.45058e-008 1.7 -7.45058e-009
v -7.45058e-008 1.7 -0.1
v 0.0999999 0.4 -0.1
v 0.0999999 0.4 -0.2
v 0.0999999 0.4 -0.3
v 0.0999999 0.4 -0.4
v 0.0999999 0.6 -7.45058e-009
v 0.0999999 0.6 -0.1
v 0.0999999 0.7 0.2
v 0.0999999 0.7 -7.45058e-009
v 0.0999999 0.7 -0.2
v 0.0999999 0.7 -0.3
v 0.0999999 0.7 -0.4
v 0.0999999 0.8 -7.45058e-009
v 0.0999999 0.8 -0.4
v 0.0999999 0.9 0.3
v 0.0999999 0.9 0.2
v 0.0999999 0.9 -7.45058e-009
v 0.0999999 0.9 -0.1
v 0.0999999 1.2 -7.45058e-009
v 0.0999999 1.2 -0.1
v 0.0999999 1.2 -0.2
v 0.0999999 1.3 0.3
v 0.0999999 1.3 -7.45058e-009
v 0.0999999 1.7 -7.45058e-009
v 0.0999999 1.7 -0.1
v 0.0999999 1.7 -0.2
v 0.0999999 1.8 -7.45058e-009
v 0.0999999 1.8 -0.1
v 0.2 1.2 -7.45058e-009
v 0.2 1.2 -0.1
v 0.2 1.7 -7.45058e-009
v 0.2 1.7 -0.1
v -0.3 0.9 0.4
v -0.3 1.1 0.4
v -7.45058e-008 0.9 0.4
v -7.45058e-008 1.1 0.4
v -0.4 0.9 0.3
v -0.4 1.3 0.3
v -0.3 0.9 0.3
v -0.3 1.1 0.3
v -0.3 1.2 0.3
v -0.2 1.1 0.3
v -0.2 1.2 0.3
v -0.1 1.1 0.3
v -0.1 1.2 0.3
v -7.45058e-008 0.9 0.3
v -7.45058e-008 1.1 0.3
v -7.45058e-008 1.2 0.3
v 0.0999999 0.9 0.3
v 0.0999999 1.3 0.3
v -0.4 0.7 0.2
v -0.4 0.9 0.2
v 0.0999999 0.7 0.2
v 0.0999999 0.9 0.2
v -0.5 1.2 -7.45058e-009
v -0.5 1.7 -7.45058e-009
v -0.4 0.6 -7.45058e-009
v -0.4 0.7 -7.45058e-009
v -0.4 1.2 -7.45058e-009
v -0.4 1.3 -7.45058e-009
v -0.4 1.7 -7.45058e-009
v -0.4 1.8 -7.45058e-009
v -0.3 1.3 -7.45058e-009
v -0.3 1.7 -7.45058e-009
v -0.3 1.8 -7.45058e-009
v -0.2 1.3 -7.45058e-009
v -0.2 1.7 -7.45058e-009
v -0.1 1.3 -7.45058e-009
v -0.1 1.7 -7.45058e-009
v -7.45058e-008 1.3 -7.45058e-009
v -7.45058e-008 1.7 -7.45058e-009
v -7.45058e-008 1.8 -7.45058e-009
v 0.0999999 0.6 -7.45058e-009
v 0.0999999 0.7 -7.45058e-009
v 0.0999999 1.2 -7.45058e-009
v 0.0999999 1.3 -7.45058e-009
v 0.0999999 1.7 -7.45058e-009
v 0.0999999 1.8 -7.45058e-009
v 0.2 1.2 -7.45058e-009
v 0.2 1.7 -7.45058e-009
v -0.4 0.4 -0.1
v -0.4 0.6 -0.1
v -0.4 1.3 -0.1
v -0.4 1.7 -0.1
v -0.3 1.3 -0.1
v -0.3 1.7 -0.1
v -7.45058e-008 1.3 -0.1
v -7.45058e-008 1.7 -0.1
v 0.0999999 0.4 -0.1
v 0.0999999 0.6 -0.1
v 0.0999999 1.3 -0.1
v 0.0999999 1.7 -0.1
v -0.4 0.4 -0.3
v -0.4 0.6 -0.3
v -0.3 0.4 -0.3
v -0.3 0.6 -0.3
v -7.45058e-008 0.4 -0.3
v -7.45058e-008 0.6 -0.3
v -7.45058e-008 0.7 -0.3
v 0.0999999 0.4 -0.3
v 0.0999999 0.7 -0.3
v -0.4 0.8 -7.45058e-009
v -0.4 0.9 -7.45058e-009
v -0.3 0.8 -7.45058e-009
v -0.3 0.9 -7.45058e-009
v -7.45058e-008 0.8 -7.45058e-009
v -7.45058e-008 0.9 -7.45058e-009
v 0.0999999 0.8 -7.45058e-009
v 0.0999999 0.9 -7.45058e-009
v -0.5 1.2 -0.1
v -0.5 1.7 -0.1
v -0.4 0.9 -0.1
v -0.4 1.2 -0.1
v -0.4 1.7 -0.1
v -0.4 1.8 -0.1
v -0.3 0.9 -0.1
v -0.3 1.2 -0.1
v -0.3 1.7 -0.1
v -0.3 1.8 -0.1
v -0.2 1.3 -0.1
v -0.2 1.7 -0.1
v -0.1 1.3 -0.1
v -0.1 1.7 -0.1
v -7.45058e-008 0.9 -0.1
v -7.45058e-008 1.2 -0.1
v -7.45058e-008 1.7 -0.1
v -7.45058e-008 1.8 -0.1
v 0.0999999 0.9 -0.1
v 0.0999999 1.2 -0.1
v 0.0999999 1.7 -0.1
v 0.0999999 1.8 -0.1
v 0.2 1.2 -0.1
v 0.2 1.7 -0.1
v -0.4 0.4 -0.2
v -0.4 0.6 -0.2
v -0.4 1.2 -0.2
v -0.4 1.7 -0.2
v -0.3 1.2 -0.2
v -0.3 1.7 -0.2
v -7.45058e-008 0.6 -0.2
v -7.45058e-008 0.7 -0.2
v -7.45058e-008 1.2 -0.2
v -7.45058e-008 1.7 -0.2
v 0.0999999 0.4 -0.2
v 0.0999999 0.7 -0.2
v 0.0999999 1.2 -0.2
v 0.0999999 1.7 -0.2
v -0.4 0.4 -0.4
v -0.4 0.7 -0.4
v -0.4 0.8 -0.4
v -0.3 0.4 -0.4
v -0.3 0.6 -0.4
v -0.3 0.7 -0.4
v -0.3 0.8 -0.4
v -0.3 0.9 -0.4
v -0.2 0.8 -0.4
v -0.2 0.9 -0.4
v -0.1 0.8 -0.4
v -0.1 0.9 -0.4
v -7.45058e-008 0.4 -0.4
v -7.45058e-008 0.6 -0.4
v -7.45058e-008 0.7 -0.4
v -7.45058e-008 0.8 -0.4
v -7.45058e-008 0.9 -0.4
v 0.0999999 0.4 -0.4
v 0.0999999 0.7 -0.4
v 0.0999999 0.8 -0.4
v -0.3 0.7 -0.5
v -0.3 0.8 -0.5
v -0.2 0.8 -0.5
v -0.2 0.9 -0.5
v -0.1 0.8 -0.5
v -0.1 0.9 -0.5
v -7.45058e-008 0.7 -0.5
v -7.45058e-008 0.8 -0.5
v -0.4 0.4 -0.1
v 0.0999999 0.4 -0.1
v -0.4 0.4 -0.2
v 0.0999999 0.4 -0.2
v -0.4 0.4 -0.3
v -0.3 0.4 -0.3
v -7.45058e-008 0.4 -0.3
v 0.0999999 0.4 -0.3
v -0.4 0.4 -0.4
v -0.3 0.4 -0.4
v -7.45058e-008 0.4 -0.4
v 0.0999999 0.4 -0.4
v -0.4 0.6 -7.45058e-009
v 0.0999999 0.6 -7.45058e-009
v -0.4 0.6 -0.1
v 0.0999999 0.6 -0.1
v -0.4 0.6 -0.2
v -7.45058e-008 0.6 -0.2
v -0.4 0.6 -0.3
v -0.3 0.6 -0.3
v -7.45058e-008 0.6 -0.3
v -0.3 0.6 -0.4
v -7.45058e-008 0.6 -0.4
v -0.4 0.7 0.2
v 0.0999999 0.7 0.2
v -0.4 0.7 -7.45058e-009
v 0.0999999 0.7 -7.45058e-009
v -7.45058e-008 0.7 -0.2
v 0.0999999 0.7 -0.2
v -7.45058e-008 0.7 -0.3
v 0.0999999 0.7 -0.3
v -0.3 0.7 -0.4
v -7.45058e-008 0.7 -0.4
v -0.3 0.7 -0.5
v -7.45058e-008 0.7 -0.5
v -0.3 0.9 0.4
v -7.45058e-008 0.9 0.4
v -0.4 0.9 0.3
v -0.3 0.9 0.3
v -7.45058e-008 0.9 0.3
v 0.0999999 0.9 0.3
v -0.4 0.9 0.2
v 0.0999999 0.9 0.2
v -0.4 0.9 -7.45058e-009
v -0.3 0.9 -7.45058e-009
v -7.45058e-008 0.9 -7.45058e-009
v 0.0999999 0.9 -7.45058e-009
v -0.4 0.9 -0.1
v -0.3 0.9 -0.1
v -7.45058e-008 0.9 -0.1
v 0.0999999 0.9 -0.1
v -0.5 1.2 -7.45058e-009
v -0.4 1.2 -7.45058e-009
v 0.0999999 1.2 -7.45058e-009
v 0.2 1.2 -7.45058e-009
v -0.5 1.2 -0.1
v -0.4 1.2 -0.1
v -0.3 1.2 -0.1
v -7.45058e-008 1.2 -0.1
v 0.0999999 1.2 -0.1
v 0.2 1.2 -0.1
v -0.4 1.2 -0.2
v -0.3 1.2 -0.2
v -7.45058e-008 1.2 -0.2
v 0.0999999 1.2 -0.2
v -0.4 1.7 -7.45058e-009
v -0.3 1.7 -7.45058e-009
v -7.45058e-008 1.7 -7.45058e-009
v 0.0999999 1.7 -7.45058e-009
v -0.4 1.7 -0.1
v -0.3 1.7 -0.1
v -7.45058e-008 1.7 -0.1
v 0.0999999 1.7 -0.1
v -0.4 0.8 -7.45058e-009
v -0.3 0.8 -7.45058e-009
v -7.45058e-008 0.8 -7.45058e-009
v 0.0999999 0.8 -7.45058e-009
v -0.4 0.8 -0.4
v -0.3 0.8 -0.4
v -0.2 0.8 -0.4
v -0.1 0.8 -0.4
v -7.45058e-008 0.8 -0.4
v 0.0999999 0.8 -0.4
v -0.3 0.8 -0.5
v -0.2 0.8 -0.5
v -0.1 0.8 -0.5
v -7.45058e-008 0.8 -0.5
v -0.3 0.9 -0.1
v -7.45058e-008 0.9 -0.1
v -0.3 0.9 -0.4
v -0.2 0.9 -0.4
v -0.1 0.9 -0.4
v -7.45058e-008 0.9 -0.4
v -0.2 0.9 -0.5
v -0.1 0.9 -0.5
v -0.3 1.1 0.4
v -7.45058e-008 1.1 0.4
v -0.3 1.1 0.3
v -0.2 1.1 0.3
v -0.1 1.1 0.3
v -7.45058e-008 1.1 0.3
v -0.4 1.3 0.3
v 0.0999999 1.3 0.3
v -0.4 1.3 -7.45058e-009
v -0.3 1.3 -7.45058e-009
v -0.2 1.3 -7.45058e-009
v -0.1 1.3 -7.45058e-009
v -7.45058e-008 1.3 -7.45058e-009
v 0.0999999 1.3 -7.45058e-009
v -0.4 1.3 -0.1
v -0.3 1.3 -0.1
v -0.2 1.3 -0.1
v -0.1 1.3 -0.1
v -7.45058e-008 1.3 -0.1
v 0.0999999 1.3 -0.1
v -0.5 1.7 -7.45058e-009
v -0.4 1.7 -7.45058e-009
v -0.3 1.7 -7.45058e-009
v -0.2 1.7 -7.45058e-009
v -0.1 1.7 -7.45058e-009
v -7.45058e-008 1.7 -7.45058e-009
v 0.0999999 1.7 -7.45058e-009
v 0.2 1.7 -7.45058e-009
v -0.5 1.7 -0.1
v -0.4 1.7 -0.1
v -0.3 1.7 -0.1
v -0.2 1.7 -0.1
v -0.1 1.7 -0.1
v -7.45058e-008 1.7 -0.1
v 0.0999999 1.7 -0.1
v 0.2 1.7 -0.1
v -0.4 1.7 -0.2
v -0.3 1.7 -0.2
v -7.45058e-008 1.7 -0.2
v 0.0999999 1.7 -0.2
v -0.4 1.8 -7.45058e-009
v -0.3 1.8 -7.45058e-009
v -7.45058e-008 1.8 -7.45058e-009
v 0.0999999 1.8 -7.45058e-009
v -0.4 1.8 -0.1
v -0.3 1.8 -0.1
v -7.45058e-008 1.8 -0.1
v 0.0999999 1.8 -0.1

# faces
f 3/3/1 2/3/1 1/3/1
f 4/3/1 2/3/1 3/3/1
f 10/3/1 6/3/1 5/3/1
f 11/3/1 6/3/1 10/3/1
f 12/2/1 8/2/1 7/2/1
f 14/3/1 11/3/1 10/3/1
f 14/3/1 10/3/1 9/3/1
f 15/2/1 12/2/1 11/2/1
f 15/3/1 11/3/1 14/3/1
f 16/2/1 8/2/1 12/2/1
f 16/2/1 12/2/1 15/2/1
f 17/3/1 14/3/1 13/3/1
f 17/3/1 15/3/1 14/3/1
f 17/3/1 16/3/1 15/3/1
f 18/3/1 16/3/1 17/3/1
f 20/3/1 17/3/1 13/3/1
f 21/3/1 17/3/1 20/3/1
f 23/3/1 20/3/1 19/3/1
f 23/3/1 22/3/1 21/3/1
f 23/3/1 21/3/1 20/3/1
f 24/3/1 22/3/1 23/3/1
f 26/3/1 23/3/1 19/3/1
f 27/3/1 23/3/1 26/3/1
f 29/3/1 25/3/1 24/3/1
f 30/3/1 25/3/1 29/3/1
f 31/3/1 29/3/1 28/3/1
f 32/3/1 29/3/1 31/3/1
f 36/3/1 34/3/1 33/3/1
f 37/3/1 34/3/1 36/3/1
f 40/3/1 36/3/1 35/3/1
f 41/3/1 36/3/1 40/3/1
f 42/3/1 36/3/1 41/3/1
f 43/3/1 39/3/1 38/3/1
f 44/3/1 39/3/1 43/3/1
f 47/3/1 46/3/1 45/3/1
f 48/3/1 46/3/1 47/3/1
f 51/3/1 50/3/1 49/3/1
f 52/3/1 50/3/1 51/3/1
f 55/3/1 54/3/1 53/3/1
f 56/3/1 54/3/1 55/3/1
f 59/2/1 58/2/1 57/2/1
f 60/2/1 58/2/1 59/2/1
f 64/3/1 62/3/1 61/3/1
f 65/3/1 62/3/1 64/3/1
f 66/3/1 64/3/1 63/3/1
f 67/3/1 64/3/1 66/3/1
f 70/3/1 69/3/1 68/3/1
f 71/3/1 69/3/1 70/3/1
f 72/3/2 73/3/2 74/3/2
f 74/3/2 73/3/2 75/3/2
f 76/2/2 77/2/2 78/2/2
f 78/2/2 77/2/2 79/2/2
f 80/3/2 81/3/2 83/3/2
f 83/3/2 81/3/2 84/3/2
f 82/3/2 83/3/2 85/3/2
f 85/3/2 83/3/2 86/3/2
f 87/3/2 88/3/2 89/3/2
f 89/3/2 88/3/2 90/3/2
f 91/3/2 92/3/2 93/3/2
f 93/3/2 92/3/2 94/3/2
f 95/2/2 96/2/2 97/2/2
f 97/2/2 96/2/2 98/2/2
f 99/3/2 100/3/2 102/3/2
f 102/3/2 100/3/2 103/3/2
f 101/3/2 102/3/2 106/3/2
f 106/3/2 102/3/2 107/3/2
f 107/3/2 102/3/2 108/3/2
f 104/3/2 105/3/2 109/3/2
f 109/3/2 105/3/2 110/3/2
f 111/3/2 112/3/2 113/3/2
f 113/3/2 112/3/2 114/3/2
f 115/3/2 116/3/2 120/3/2
f 119/3/2 120/3/2 122/3/2
f 120/3/2 116/3/2 123/3/2
f 122/3/2 120/3/2 123/3/2
f 117/2/2 118/2/2 124/2/2
f 124/2/2 118/2/2 125/2/2
f 122/3/2 123/3/2 126/3/2
f 121/3/2 122/3/2 126/3/2
f 124/3/2 125/3/2 126/3/2
f 123/3/2 124/3/2 126/3/2
f 126/3/2 125/3/2 127/3/2
f 121/3/2 126/3/2 129/3/2
f 129/3/2 126/3/2 130/3/2
f 128/3/2 129/3/2 132/3/2
f 130/3/2 131/3/2 132/3/2
f 129/3/2 130/3/2 132/3/2
f 132/3/2 131/3/2 133/3/2
f 128/3/2 132/3/2 135/3/2
f 135/3/2 132/3/2 136/3/2
f 133/3/2 134/3/2 138/3/2
f 138/3/2 134/3/2 139/3/2
f 137/3/2 138/3/2 140/3/2
f 140/3/2 138/3/2 141/3/2
f 142/3/2 143/3/2 144/3/2
f 144/3/2 143/3/2 145/3/2
f 148/3/3 147/3/3 146/3/3
f 149/3/3 147/3/3 148/3/3
f 152/3/3 151/3/3 150/3/3
f 153/3/3 151/3/3 152/3/3
f 154/3/3 151/3/3 153/3/3
f 155/4/3 154/4/3 153/4/3
f 156/3/3 151/3/3 154/3/3
f 156/4/3 154/4/3 155/4/3
f 157/3/3 156/3/3 155/3/3
f 158/3/3 151/3/3 156/3/3
f 158/3/3 156/3/3 157/3/3
f 160/4/3 158/4/3 157/4/3
f 161/3/3 151/3/3 158/3/3
f 161/4/3 158/4/3 160/4/3
f 162/3/3 160/3/3 159/3/3
f 162/3/3 161/3/3 160/3/3
f 163/3/3 151/3/3 161/3/3
f 163/3/3 161/3/3 162/3/3
f 166/3/3 165/3/3 164/3/3
f 167/3/3 165/3/3 166/3/3
f 172/3/3 169/3/3 168/3/3
f 173/3/3 169/3/3 172/3/3
f 174/3/3 169/3/3 173/3/3
f 177/3/3 175/3/3 174/3/3
f 178/3/3 175/3/3 177/3/3
f 179/3/3 177/3/3 176/3/3
f 180/3/3 177/3/3 179/3/3
f 183/3/3 182/3/3 181/3/3
f 184/3/3 182/3/3 183/3/3
f 186/3/3 171/3/3 170/3/3
f 187/3/3 171/3/3 186/3/3
f 190/3/3 185/3/3 184/3/3
f 191/3/3 185/3/3 190/3/3
f 192/3/3 189/3/3 188/3/3
f 192/3/3 190/3/3 189/3/3
f 193/3/3 190/3/3 192/3/3
f 198/3/3 197/3/3 196/3/3
f 199/3/3 197/3/3 198/3/3
f 202/3/3 195/3/3 194/3/3
f 203/3/3 195/3/3 202/3/3
f 204/3/3 201/3/3 200/3/3
f 205/3/3 201/3/3 204/3/3
f 208/2/3 207/2/3 206/2/3
f 209/2/3 207/2/3 208/2/3
f 213/2/3 211/2/3 210/2/3
f 213/2/3 212/2/3 211/2/3
f 214/2/3 212/2/3 213/2/3
f 215/3/4 216/3/4 217/3/4
f 217/3/4 216/3/4 218/3/4
f 219/3/4 220/3/4 221/3/4
f 221/3/4 220/3/4 222/3/4
f 223/3/4 224/3/4 226/3/4
f 226/3/4 224/3/4 227/3/4
f 225/3/4 226/3/4 229/3/4
f 229/3/4 226/3/4 230/3/4
f 227/3/4 228/3/4 231/3/4
f 231/3/4 228/3/4 232/3/4
f 229/3/4 230/3/4 233/3/4
f 230/3/4 231/3/4 233/3/4
f 233/3/4 231/3/4 234/3/4
f 229/3/4 233/3/4 235/3/4
f 229/3/4 235/3/4 237/3/4
f 235/3/4 236/3/4 237/3/4
f 237/3/4 236/3/4 238/3/4
f 238/3/4 236/3/4 239/3/4
f 237/3/4 238/3/4 241/3/4
f 241/3/4 238/3/4 242/3/4
f 239/3/4 240/3/4 243/3/4
f 243/3/4 240/3/4 244/3/4
f 242/3/4 243/3/4 245/3/4
f 245/3/4 243/3/4 246/3/4
f 249/3/4 250/3/4 251/3/4
f 251/3/4 250/3/4 252/3/4
f 247/3/4 248/3/4 253/3/4
f 247/3/4 253/3/4 257/3/4
f 253/3/4 254/3/4 257/3/4
f 257/3/4 254/3/4 258/3/4
f 255/3/4 256/3/4 259/3/4
f 259/3/4 256/3/4 260/3/4
f 261/2/4 262/2/4 264/2/4
f 264/2/4 262/2/4 265/2/4
f 262/3/4 263/3/4 266/3/4
f 265/2/4 262/2/4 266/2/4
f 266/3/4 263/3/4 267/3/4
f 267/3/4 268/3/4 269/3/4
f 269/3/4 268/3/4 270/3/4
f 265/2/4 266/2/4 274/2/4
f 274/2/4 266/2/4 275/2/4
f 271/3/4 272/3/4 276/3/4
f 276/3/4 272/3/4 277/3/4
f 274/2/4 275/2/4 278/2/4
f 273/2/4 274/2/4 278/2/4
f 275/3/4 276/3/4 279/3/4
f 278/2/4 275/2/4 279/2/4
f 279/3/4 276/3/4 280/3/4
f 281/3/4 282/3/4 283/3/4
f 281/3/4 283/3/4 285/3/4
f 283/3/4 284/3/4 285/3/4
f 285/3/4 284/3/4 286/3/4
f 281/3/4 285/3/4 287/3/4
f 287/3/4 285/3/4 288/3/4
f 291/3/5 290/3/5 289/3/5
f 292/3/5 290/3/5 291/3/5
f 297/2/5 294/2/5 293/2/5
f 298/2/5 294/2/5 297/2/5
f 299/2/5 296/2/5 295/2/5
f 300/2/5 296/2/5 299/2/5
f 303/3/5 302/3/5 301/3/5
f 304/3/5 302/3/5 303/3/5
f 307/2/5 306/2/5 305/2/5
f 308/2/5 306/2/5 307/2/5
f 309/2/5 306/2/5 308/2/5
f 310/2/5 309/2/5 308/2/5
f 311/2/5 309/2/5 310/2/5
f 314/3/5 313/3/5 312/3/5
f 315/3/5 313/3/5 314/3/5
f 318/3/5 317/3/5 316/3/5
f 319/3/5 317/3/5 318/3/5
f 322/3/5 321/3/5 320/3/5
f 323/3/5 321/3/5 322/3/5
f 327/3/5 325/3/5 324/3/5
f 328/3/5 325/3/5 327/3/5
f 330/3/5 327/3/5 326/3/5
f 330/3/5 329/3/5 328/3/5
f 330/3/5 328/3/5 327/3/5
f 331/3/5 329/3/5 330/3/5
f 336/3/5 333/3/5 332/3/5
f 337/3/5 333/3/5 336/3/5
f 338/3/5 335/3/5 334/3/5
f 339/3/5 335/3/5 338/3/5
f 344/3/5 341/3/5 340/3/5
f 345/3/5 341/3/5 344/3/5
f 348/3/5 343/3/5 342/3/5
f 349/3/5 343/3/5 348/3/5
f 350/3/5 346/3/5 345/3/5
f 351/3/5 346/3/5 350/3/5
f 352/3/5 348/3/5 347/3/5
f 353/3/5 348/3/5 352/3/5
f 358/3/5 355/3/5 354/3/5
f 359/3/5 355/3/5 358/3/5
f 360/3/5 357/3/5 356/3/5
f 361/3/5 357/3/5 360/3/5
f 362/3/6 363/3/6 366/3/6
f 366/3/6 363/3/6 367/3/6
f 364/3/6 365/3/6 370/3/6
f 370/3/6 365/3/6 371/3/6
f 367/3/6 368/3/6 372/3/6
f 372/3/6 368/3/6 373/3/6
f 369/3/6 370/3/6 374/3/6
f 374/3/6 370/3/6 375/3/6
f 376/3/6 377/3/6 378/3/6
f 378/3/6 377/3/6 379/3/6
f 379/3/6 377/3/6 380/3/6
f 380/3/6 377/3/6 381/3/6
f 379/3/6 380/3/6 382/3/6
f 382/3/6 380/3/6 383/3/6
f 384/3/6 385/3/6 386/3/6
f 386/3/6 385/3/6 387/3/6
f 387/3/6 385/3/6 388/3/6
f 388/3/6 385/3/6 389/3/6
f 390/3/6 391/3/6 392/3/6
f 392/3/6 391/3/6 393/3/6
f 393/3/6 391/3/6 394/3/6
f 394/3/6 391/3/6 395/3/6
f 395/3/6 391/3/6 396/3/6
f 396/3/6 391/3/6 397/3/6
f 392/3/6 393/3/6 398/3/6
f 398/3/6 393/3/6 399/3/6
f 394/3/6 395/3/6 400/3/6
f 400/3/6 395/3/6 401/3/6
f 396/3/6 397/3/6 402/3/6
f 402/3/6 397/3/6 403/3/6
f 404/3/6 405/3/6 412/3/6
f 412/3/6 405/3/6 413/3/6
f 406/3/6 407/3/6 414/3/6
f 414/3/6 407/3/6 415/3/6
f 408/3/6 409/3/6 416/3/6
f 416/3/6 409/3/6 417/3/6
f 410/3/6 411/3/6 418/3/6
f 418/3/6 411/3/6 419/3/6
f 413/3/6 414/3/6 420/3/6
f 420/3/6 414/3/6 421/3/6
f 417/3/6 418/3/6 422/3/6
f 422/3/6 418/3/6 423/3/6
f 424/3/6 425/3/6 428/3/6
f 428/3/6 425/3/6 429/3/6
f 426/3/6 427/3/6 430/3/6
f 430/3/6 427/3/6 431/3/6
