# MagicaVoxel @ Ephtracy

# group
o 

# material
mtllib z.mtl
usemtl palette

# normals
vn -1 0 0
vn 1 0 0
vn 0 0 1
vn 0 0 -1
vn 0 -1 0
vn 0 1 0

# texcoords
vt 0.0566406 0.5
vt 0.0605469 0.5
vt 0.396484 0.5
vt 0.958984 0.5
vt 0.962891 0.5
vt 0.970703 0.5
vt 0.994141 0.5

# verts
v 0 2 0
v 0 2 -0.4
v 0 2.1 0
v 0 2.1 -0.1
v 0 2.1 -0.4
v 0 2.3 -0.1
v 0 2.3 -0.2
v 0 2.4 -0.2
v 0 2.4 -0.4
v 0 2.6 0
v 0 2.6 -0.2
v 0 2.6 -0.4
v 0 2.7 0
v 0 2.7 -0.2
v 0 2.8 0
v 0 2.8 -0.4
v 0.1 2.1 -0.4
v 0.1 2.1 -0.6
v 0.1 2.4 -0.2
v 0.1 2.4 -0.4
v 0.1 2.6 -0.2
v 0.1 2.6 -0.4
v 0.1 2.8 -0.4
v 0.1 2.8 -0.6
v 0.1 2.9 -0.1
v 0.1 2.9 -0.4
v 0.1 2.9 -0.5
v 0.1 3.1 -0.1
v 0.1 3.1 -0.2
v 0.1 3.1 -0.3
v 0.1 3.3 -0.2
v 0.1 3.3 -0.3
v 0.1 3.3 -0.4
v 0.1 3.3 -0.5
v 0.1 3.4 -0.3
v 0.1 3.4 -0.4
v 0.1 3.6 0
v 0.1 3.6 -0.1
v 0.1 3.7 0
v 0.1 3.7 -0.1
v 0.1 3.7 -0.2
v 0.1 3.8 -0.1
v 0.1 3.8 -0.3
v 0.2 2.8 -0.2
v 0.2 2.8 -0.5
v 0.2 2.9 -0.2
v 0.2 2.9 -0.4
v 0.2 2.9 -0.5
v 0.2 3.3 -0.4
v 0.2 3.3 -0.5
v 0.2 3.4 -0.4
v 0.2 3.4 -0.5
v 0.3 2.2 -0.6
v 0.3 2.2 -0.7
v 0.3 2.4 -0.6
v 0.3 2.4 -0.7
v 0.3 3 0
v 0.3 3 -0.1
v 0.3 3.1 0
v 0.3 3.1 -0.1
v 0.5 3.4 -0.2
v 0.5 3.4 -0.3
v 0.5 3.6 0
v 0.5 3.6 -0.1
v 0.5 3.7 0
v 0.5 3.7 -0.1
v 0.5 3.7 -0.2
v 0.5 3.8 -0.1
v 0.5 3.8 -0.3
v 0.6 2 0
v 0.6 2 -0.2
v 0.6 2 -0.3
v 0.6 2.1 0
v 0.6 2.1 -0.1
v 0.6 2.1 -0.2
v 0.6 2.1 -0.3
v 0.6 2.3 -0.1
v 0.6 2.3 -0.2
v 0.6 2.6 0
v 0.6 2.6 -0.1
v 0.6 2.6 -0.2
v 0.6 2.7 0
v 0.6 2.7 -0.1
v 0.6 2.7 -0.2
v 0.6 2.8 0
v 0.6 2.8 -0.2
v 0.2 2 0
v 0.2 2 -0.2
v 0.2 2 -0.3
v 0.2 2.1 0
v 0.2 2.1 -0.1
v 0.2 2.1 -0.2
v 0.2 2.1 -0.3
v 0.2 2.3 -0.1
v 0.2 2.3 -0.2
v 0.2 2.6 0
v 0.2 2.6 -0.1
v 0.2 2.6 -0.2
v 0.2 2.7 0
v 0.2 2.7 -0.1
v 0.2 2.7 -0.2
v 0.2 2.8 0
v 0.2 2.8 -0.2
v 0.3 3.4 -0.2
v 0.3 3.4 -0.3
v 0.3 3.6 0
v 0.3 3.6 -0.1
v 0.3 3.7 0
v 0.3 3.7 -0.1
v 0.3 3.7 -0.2
v 0.3 3.8 -0.1
v 0.3 3.8 -0.3
v 0.5 2.2 -0.6
v 0.5 2.2 -0.7
v 0.5 2.4 -0.6
v 0.5 2.4 -0.7
v 0.5 3 0
v 0.5 3 -0.1
v 0.5 3.1 0
v 0.5 3.1 -0.1
v 0.6 2.8 -0.2
v 0.6 2.8 -0.5
v 0.6 2.9 -0.2
v 0.6 2.9 -0.4
v 0.6 2.9 -0.5
v 0.6 3.3 -0.4
v 0.6 3.3 -0.5
v 0.6 3.4 -0.4
v 0.6 3.4 -0.5
v 0.7 2.1 -0.4
v 0.7 2.1 -0.6
v 0.7 2.4 -0.2
v 0.7 2.4 -0.4
v 0.7 2.6 -0.2
v 0.7 2.6 -0.4
v 0.7 2.8 -0.4
v 0.7 2.8 -0.6
v 0.7 2.9 -0.1
v 0.7 2.9 -0.4
v 0.7 2.9 -0.5
v 0.7 3.1 -0.1
v 0.7 3.1 -0.2
v 0.7 3.1 -0.3
v 0.7 3.3 -0.2
v 0.7 3.3 -0.3
v 0.7 3.3 -0.4
v 0.7 3.3 -0.5
v 0.7 3.4 -0.3
v 0.7 3.4 -0.4
v 0.7 3.6 0
v 0.7 3.6 -0.1
v 0.7 3.7 0
v 0.7 3.7 -0.1
v 0.7 3.7 -0.2
v 0.7 3.8 -0.1
v 0.7 3.8 -0.3
v 0.8 2 0
v 0.8 2 -0.4
v 0.8 2.1 0
v 0.8 2.1 -0.1
v 0.8 2.1 -0.4
v 0.8 2.3 -0.1
v 0.8 2.3 -0.2
v 0.8 2.4 -0.2
v 0.8 2.4 -0.4
v 0.8 2.6 0
v 0.8 2.6 -0.2
v 0.8 2.6 -0.4
v 0.8 2.7 0
v 0.8 2.7 -0.2
v 0.8 2.8 0
v 0.8 2.8 -0.4
v 0 2 0
v 0 2.1 0
v 0 2.6 0
v 0 2.7 0
v 0 2.8 0
v 0.1 3.6 0
v 0.1 3.7 0
v 0.2 2 0
v 0.2 2.1 0
v 0.2 2.6 0
v 0.2 2.7 0
v 0.2 2.8 0
v 0.3 3 0
v 0.3 3.1 0
v 0.3 3.6 0
v 0.3 3.7 0
v 0.5 3 0
v 0.5 3.1 0
v 0.5 3.6 0
v 0.5 3.7 0
v 0.6 2 0
v 0.6 2.1 0
v 0.6 2.6 0
v 0.6 2.7 0
v 0.6 2.8 0
v 0.7 3.6 0
v 0.7 3.7 0
v 0.8 2 0
v 0.8 2.1 0
v 0.8 2.6 0
v 0.8 2.7 0
v 0.8 2.8 0
v 0 2.1 -0.1
v 0 2.3 -0.1
v 0.1 2.9 -0.1
v 0.1 3.1 -0.1
v 0.1 3.7 -0.1
v 0.1 3.8 -0.1
v 0.2 2.1 -0.1
v 0.2 2.3 -0.1
v 0.3 2.9 -0.1
v 0.3 3 -0.1
v 0.3 3.1 -0.1
v 0.3 3.7 -0.1
v 0.3 3.8 -0.1
v 0.5 2.9 -0.1
v 0.5 3 -0.1
v 0.5 3.1 -0.1
v 0.5 3.7 -0.1
v 0.5 3.8 -0.1
v 0.6 2.1 -0.1
v 0.6 2.3 -0.1
v 0.7 2.9 -0.1
v 0.7 3.1 -0.1
v 0.7 3.7 -0.1
v 0.7 3.8 -0.1
v 0.8 2.1 -0.1
v 0.8 2.3 -0.1
v 0 2.3 -0.2
v 0 2.4 -0.2
v 0.1 2.4 -0.2
v 0.1 2.6 -0.2
v 0.1 3.1 -0.2
v 0.1 3.3 -0.2
v 0.1 3.7 -0.2
v 0.2 2.1 -0.2
v 0.2 2.3 -0.2
v 0.2 2.6 -0.2
v 0.2 2.7 -0.2
v 0.2 2.8 -0.2
v 0.2 2.9 -0.2
v 0.2 3.1 -0.2
v 0.2 3.2 -0.2
v 0.2 3.3 -0.2
v 0.2 3.4 -0.2
v 0.3 2.9 -0.2
v 0.3 3.1 -0.2
v 0.3 3.2 -0.2
v 0.3 3.3 -0.2
v 0.3 3.4 -0.2
v 0.3 3.7 -0.2
v 0.5 2.9 -0.2
v 0.5 3.1 -0.2
v 0.5 3.2 -0.2
v 0.5 3.3 -0.2
v 0.5 3.4 -0.2
v 0.5 3.7 -0.2
v 0.6 2.1 -0.2
v 0.6 2.3 -0.2
v 0.6 2.6 -0.2
v 0.6 2.7 -0.2
v 0.6 2.8 -0.2
v 0.6 2.9 -0.2
v 0.6 3.1 -0.2
v 0.6 3.2 -0.2
v 0.6 3.3 -0.2
v 0.6 3.4 -0.2
v 0.7 2.4 -0.2
v 0.7 2.6 -0.2
v 0.7 3.1 -0.2
v 0.7 3.3 -0.2
v 0.7 3.7 -0.2
v 0.8 2.3 -0.2
v 0.8 2.4 -0.2
v 0.2 2 -0.3
v 0.2 2.1 -0.3
v 0.6 2 -0.3
v 0.6 2.1 -0.3
v 0.1 3.6 -0.1
v 0.1 3.7 -0.1
v 0.3 3.6 -0.1
v 0.3 3.7 -0.1
v 0.5 3.6 -0.1
v 0.5 3.7 -0.1
v 0.7 3.6 -0.1
v 0.7 3.7 -0.1
v 0.1 3.4 -0.3
v 0.1 3.8 -0.3
v 0.3 3.4 -0.3
v 0.3 3.8 -0.3
v 0.5 3.4 -0.3
v 0.5 3.8 -0.3
v 0.7 3.4 -0.3
v 0.7 3.8 -0.3
v 0 2 -0.4
v 0 2.1 -0.4
v 0 2.4 -0.4
v 0 2.6 -0.4
v 0 2.8 -0.4
v 0.1 2 -0.4
v 0.1 2.1 -0.4
v 0.1 2.4 -0.4
v 0.1 2.6 -0.4
v 0.1 2.8 -0.4
v 0.1 3.3 -0.4
v 0.1 3.4 -0.4
v 0.2 3.3 -0.4
v 0.2 3.4 -0.4
v 0.6 3.3 -0.4
v 0.6 3.4 -0.4
v 0.7 2 -0.4
v 0.7 2.1 -0.4
v 0.7 2.4 -0.4
v 0.7 2.6 -0.4
v 0.7 2.8 -0.4
v 0.7 3.3 -0.4
v 0.7 3.4 -0.4
v 0.8 2 -0.4
v 0.8 2.1 -0.4
v 0.8 2.4 -0.4
v 0.8 2.6 -0.4
v 0.8 2.8 -0.4
v 0.1 2.9 -0.5
v 0.1 3.3 -0.5
v 0.2 2.8 -0.5
v 0.2 2.9 -0.5
v 0.2 3.3 -0.5
v 0.2 3.4 -0.5
v 0.6 2.8 -0.5
v 0.6 2.9 -0.5
v 0.6 3.3 -0.5
v 0.6 3.4 -0.5
v 0.7 2.9 -0.5
v 0.7 3.3 -0.5
v 0.1 2.1 -0.6
v 0.1 2.8 -0.6
v 0.3 2.2 -0.6
v 0.3 2.4 -0.6
v 0.5 2.2 -0.6
v 0.5 2.4 -0.6
v 0.7 2.1 -0.6
v 0.7 2.8 -0.6
v 0.3 2.2 -0.7
v 0.3 2.4 -0.7
v 0.5 2.2 -0.7
v 0.5 2.4 -0.7
v 0 2 0
v 0.2 2 0
v 0.6 2 0
v 0.8 2 0
v 0.1 2 -0.2
v 0.2 2 -0.2
v 0.6 2 -0.2
v 0.7 2 -0.2
v 0.2 2 -0.3
v 0.6 2 -0.3
v 0 2 -0.4
v 0.1 2 -0.4
v 0.7 2 -0.4
v 0.8 2 -0.4
v 0.2 2.1 -0.2
v 0.6 2.1 -0.2
v 0.2 2.1 -0.3
v 0.6 2.1 -0.3
v 0.1 2.1 -0.4
v 0.7 2.1 -0.4
v 0.1 2.1 -0.6
v 0.7 2.1 -0.6
v 0.3 2.2 -0.6
v 0.5 2.2 -0.6
v 0.3 2.2 -0.7
v 0.5 2.2 -0.7
v 0 2.6 0
v 0.2 2.6 0
v 0.6 2.6 0
v 0.8 2.6 0
v 0.1 2.6 -0.1
v 0.2 2.6 -0.1
v 0.6 2.6 -0.1
v 0.7 2.6 -0.1
v 0 2.6 -0.2
v 0.1 2.6 -0.2
v 0.2 2.6 -0.2
v 0.6 2.6 -0.2
v 0.7 2.6 -0.2
v 0.8 2.6 -0.2
v 0 2.6 -0.4
v 0.1 2.6 -0.4
v 0.7 2.6 -0.4
v 0.8 2.6 -0.4
v 0.1 2.9 -0.1
v 0.3 2.9 -0.1
v 0.5 2.9 -0.1
v 0.7 2.9 -0.1
v 0.2 2.9 -0.2
v 0.3 2.9 -0.2
v 0.5 2.9 -0.2
v 0.6 2.9 -0.2
v 0.1 2.9 -0.4
v 0.2 2.9 -0.4
v 0.6 2.9 -0.4
v 0.7 2.9 -0.4
v 0.1 2.9 -0.5
v 0.2 2.9 -0.5
v 0.6 2.9 -0.5
v 0.7 2.9 -0.5
v 0.3 3 0
v 0.5 3 0
v 0.3 3 -0.1
v 0.5 3 -0.1
v 0.1 3.6 0
v 0.3 3.6 0
v 0.5 3.6 0
v 0.7 3.6 0
v 0.1 3.6 -0.1
v 0.3 3.6 -0.1
v 0.5 3.6 -0.1
v 0.7 3.6 -0.1
v 0.1 3.7 -0.1
v 0.3 3.7 -0.1
v 0.5 3.7 -0.1
v 0.7 3.7 -0.1
v 0.1 3.7 -0.2
v 0.3 3.7 -0.2
v 0.5 3.7 -0.2
v 0.7 3.7 -0.2
v 0 2.1 0
v 0.2 2.1 0
v 0.6 2.1 0
v 0.8 2.1 0
v 0 2.1 -0.1
v 0.2 2.1 -0.1
v 0.6 2.1 -0.1
v 0.8 2.1 -0.1
v 0 2.3 -0.1
v 0.2 2.3 -0.1
v 0.6 2.3 -0.1
v 0.8 2.3 -0.1
v 0 2.3 -0.2
v 0.2 2.3 -0.2
v 0.6 2.3 -0.2
v 0.8 2.3 -0.2
v 0 2.4 -0.2
v 0.1 2.4 -0.2
v 0.7 2.4 -0.2
v 0.8 2.4 -0.2
v 0 2.4 -0.4
v 0.1 2.4 -0.4
v 0.7 2.4 -0.4
v 0.8 2.4 -0.4
v 0.3 2.4 -0.6
v 0.5 2.4 -0.6
v 0.3 2.4 -0.7
v 0.5 2.4 -0.7
v 0 2.8 0
v 0.2 2.8 0
v 0.6 2.8 0
v 0.8 2.8 0
v 0.2 2.8 -0.2
v 0.6 2.8 -0.2
v 0 2.8 -0.4
v 0.1 2.8 -0.4
v 0.7 2.8 -0.4
v 0.8 2.8 -0.4
v 0.2 2.8 -0.5
v 0.6 2.8 -0.5
v 0.1 2.8 -0.6
v 0.7 2.8 -0.6
v 0.3 3.1 0
v 0.5 3.1 0
v 0.1 3.1 -0.1
v 0.3 3.1 -0.1
v 0.5 3.1 -0.1
v 0.7 3.1 -0.1
v 0.1 3.1 -0.2
v 0.2 3.1 -0.2
v 0.3 3.1 -0.2
v 0.5 3.1 -0.2
v 0.6 3.1 -0.2
v 0.7 3.1 -0.2
v 0.1 3.3 -0.4
v 0.2 3.3 -0.4
v 0.6 3.3 -0.4
v 0.7 3.3 -0.4
v 0.1 3.3 -0.5
v 0.2 3.3 -0.5
v 0.6 3.3 -0.5
v 0.7 3.3 -0.5
v 0.3 3.4 -0.2
v 0.5 3.4 -0.2
v 0.1 3.4 -0.3
v 0.3 3.4 -0.3
v 0.5 3.4 -0.3
v 0.7 3.4 -0.3
v 0.1 3.4 -0.4
v 0.2 3.4 -0.4
v 0.6 3.4 -0.4
v 0.7 3.4 -0.4
v 0.2 3.4 -0.5
v 0.6 3.4 -0.5
v 0.1 3.7 0
v 0.3 3.7 0
v 0.5 3.7 0
v 0.7 3.7 0
v 0.1 3.7 -0.1
v 0.3 3.7 -0.1
v 0.5 3.7 -0.1
v 0.7 3.7 -0.1
v 0.1 3.8 -0.1
v 0.3 3.8 -0.1
v 0.5 3.8 -0.1
v 0.7 3.8 -0.1
v 0.1 3.8 -0.3
v 0.3 3.8 -0.3
v 0.5 3.8 -0.3
v 0.7 3.8 -0.3

# faces
f 3/4/1 2/4/1 1/4/1
f 4/4/1 2/4/1 3/4/1
f 5/4/1 2/4/1 4/4/1
f 6/3/1 5/3/1 4/3/1
f 7/3/1 5/3/1 6/3/1
f 8/3/1 5/3/1 7/3/1
f 9/3/1 5/3/1 8/3/1
f 13/4/1 11/4/1 10/4/1
f 14/3/1 12/3/1 11/3/1
f 14/4/1 11/4/1 13/4/1
f 15/3/1 14/3/1 13/3/1
f 16/3/1 12/3/1 14/3/1
f 16/3/1 14/3/1 15/3/1
f 20/3/1 18/3/1 17/3/1
f 21/3/1 20/3/1 19/3/1
f 22/3/1 18/3/1 20/3/1
f 22/3/1 20/3/1 21/3/1
f 23/3/1 18/3/1 22/3/1
f 24/3/1 18/3/1 23/3/1
f 28/6/1 26/6/1 25/6/1
f 29/6/1 26/6/1 28/6/1
f 30/6/1 26/6/1 29/6/1
f 31/4/1 30/4/1 29/4/1
f 32/6/1 26/6/1 30/6/1
f 32/4/1 30/4/1 31/4/1
f 33/3/1 27/3/1 26/3/1
f 33/6/1 26/6/1 32/6/1
f 34/3/1 27/3/1 33/3/1
f 35/2/1 32/2/1 31/2/1
f 35/3/1 33/3/1 32/3/1
f 36/3/1 33/3/1 35/3/1
f 39/2/1 38/2/1 37/2/1
f 40/2/1 38/2/1 39/2/1
f 41/2/1 35/2/1 31/2/1
f 42/2/1 41/2/1 40/2/1
f 43/2/1 35/2/1 41/2/1
f 43/2/1 41/2/1 42/2/1
f 46/3/1 45/3/1 44/3/1
f 47/3/1 45/3/1 46/3/1
f 48/3/1 45/3/1 47/3/1
f 51/3/1 50/3/1 49/3/1
f 52/3/1 50/3/1 51/3/1
f 55/4/1 54/4/1 53/4/1
f 56/4/1 54/4/1 55/4/1
f 59/1/1 58/1/1 57/1/1
f 60/1/1 58/1/1 59/1/1
f 65/2/1 64/2/1 63/2/1
f 66/2/1 64/2/1 65/2/1
f 67/2/1 62/2/1 61/2/1
f 68/2/1 67/2/1 66/2/1
f 69/2/1 62/2/1 67/2/1
f 69/2/1 67/2/1 68/2/1
f 73/4/1 71/4/1 70/4/1
f 74/4/1 71/4/1 73/4/1
f 75/3/1 72/3/1 71/3/1
f 75/4/1 71/4/1 74/4/1
f 76/3/1 72/3/1 75/3/1
f 77/3/1 75/3/1 74/3/1
f 78/3/1 75/3/1 77/3/1
f 82/4/1 80/4/1 79/4/1
f 83/5/1 81/5/1 80/5/1
f 83/4/1 80/4/1 82/4/1
f 84/5/1 81/5/1 83/5/1
f 85/3/1 83/3/1 82/3/1
f 85/3/1 84/3/1 83/3/1
f 86/3/1 84/3/1 85/3/1
f 87/4/2 88/4/2 90/4/2
f 90/4/2 88/4/2 91/4/2
f 88/3/2 89/3/2 92/3/2
f 91/4/2 88/4/2 92/4/2
f 92/3/2 89/3/2 93/3/2
f 91/3/2 92/3/2 94/3/2
f 94/3/2 92/3/2 95/3/2
f 96/4/2 97/4/2 99/4/2
f 97/5/2 98/5/2 100/5/2
f 99/4/2 97/4/2 100/4/2
f 100/5/2 98/5/2 101/5/2
f 99/3/2 100/3/2 102/3/2
f 100/3/2 101/3/2 102/3/2
f 102/3/2 101/3/2 103/3/2
f 106/2/2 107/2/2 108/2/2
f 108/2/2 107/2/2 109/2/2
f 104/2/2 105/2/2 110/2/2
f 109/2/2 110/2/2 111/2/2
f 110/2/2 105/2/2 112/2/2
f 111/2/2 110/2/2 112/2/2
f 113/4/2 114/4/2 115/4/2
f 115/4/2 114/4/2 116/4/2
f 117/1/2 118/1/2 119/1/2
f 119/1/2 118/1/2 120/1/2
f 121/3/2 122/3/2 123/3/2
f 123/3/2 122/3/2 124/3/2
f 124/3/2 122/3/2 125/3/2
f 126/3/2 127/3/2 128/3/2
f 128/3/2 127/3/2 129/3/2
f 130/3/2 131/3/2 133/3/2
f 132/3/2 133/3/2 134/3/2
f 133/3/2 131/3/2 135/3/2
f 134/3/2 133/3/2 135/3/2
f 135/3/2 131/3/2 136/3/2
f 136/3/2 131/3/2 137/3/2
f 138/6/2 139/6/2 141/6/2
f 141/6/2 139/6/2 142/6/2
f 142/6/2 139/6/2 143/6/2
f 142/4/2 143/4/2 144/4/2
f 143/6/2 139/6/2 145/6/2
f 144/4/2 143/4/2 145/4/2
f 139/3/2 140/3/2 146/3/2
f 145/6/2 139/6/2 146/6/2
f 146/3/2 140/3/2 147/3/2
f 144/2/2 145/2/2 148/2/2
f 145/3/2 146/3/2 148/3/2
f 148/3/2 146/3/2 149/3/2
f 150/2/2 151/2/2 152/2/2
f 152/2/2 151/2/2 153/2/2
f 144/2/2 148/2/2 154/2/2
f 153/2/2 154/2/2 155/2/2
f 154/2/2 148/2/2 156/2/2
f 155/2/2 154/2/2 156/2/2
f 157/4/2 158/4/2 159/4/2
f 159/4/2 158/4/2 160/4/2
f 160/4/2 158/4/2 161/4/2
f 160/3/2 161/3/2 162/3/2
f 162/3/2 161/3/2 163/3/2
f 163/3/2 161/3/2 164/3/2
f 164/3/2 161/3/2 165/3/2
f 166/4/2 167/4/2 169/4/2
f 167/3/2 168/3/2 170/3/2
f 169/4/2 167/4/2 170/4/2
f 169/3/2 170/3/2 171/3/2
f 170/3/2 168/3/2 172/3/2
f 171/3/2 170/3/2 172/3/2
f 180/4/3 174/4/3 173/4/3
f 181/4/3 174/4/3 180/4/3
f 182/4/3 176/4/3 175/4/3
f 183/3/3 177/3/3 176/3/3
f 183/4/3 176/4/3 182/4/3
f 184/3/3 177/3/3 183/3/3
f 187/2/3 179/2/3 178/2/3
f 188/2/3 179/2/3 187/2/3
f 189/1/3 186/1/3 185/1/3
f 190/1/3 186/1/3 189/1/3
f 198/2/3 192/2/3 191/2/3
f 199/2/3 192/2/3 198/2/3
f 200/4/3 194/4/3 193/4/3
f 201/4/3 194/4/3 200/4/3
f 202/4/3 196/4/3 195/4/3
f 203/3/3 197/3/3 196/3/3
f 203/4/3 196/4/3 202/4/3
f 204/3/3 197/3/3 203/3/3
f 211/3/3 206/3/3 205/3/3
f 212/3/3 206/3/3 211/3/3
f 213/6/3 208/6/3 207/6/3
f 214/6/3 208/6/3 213/6/3
f 215/6/3 208/6/3 214/6/3
f 216/2/3 210/2/3 209/2/3
f 217/2/3 210/2/3 216/2/3
f 218/4/3 214/4/3 213/4/3
f 219/4/3 214/4/3 218/4/3
f 225/6/3 219/6/3 218/6/3
f 225/6/3 220/6/3 219/6/3
f 226/6/3 220/6/3 225/6/3
f 227/2/3 222/2/3 221/2/3
f 228/2/3 222/2/3 227/2/3
f 229/3/3 224/3/3 223/3/3
f 230/3/3 224/3/3 229/3/3
f 233/3/3 232/3/3 231/3/3
f 239/3/3 233/3/3 231/3/3
f 239/3/3 234/3/3 233/3/3
f 240/3/3 234/3/3 239/3/3
f 244/4/3 236/4/3 235/4/3
f 245/4/3 236/4/3 244/4/3
f 246/2/3 237/2/3 236/2/3
f 246/4/3 236/4/3 245/4/3
f 247/2/3 237/2/3 246/2/3
f 248/3/3 243/3/3 242/3/3
f 248/3/3 239/3/3 238/3/3
f 248/3/3 240/3/3 239/3/3
f 248/3/3 241/3/3 240/3/3
f 248/3/3 242/3/3 241/3/3
f 249/7/3 245/7/3 244/7/3
f 250/4/3 246/4/3 245/4/3
f 250/7/3 245/7/3 249/7/3
f 251/3/3 247/3/3 246/3/3
f 251/4/3 246/4/3 250/4/3
f 252/2/3 237/2/3 247/2/3
f 252/3/3 247/3/3 251/3/3
f 253/2/3 237/2/3 252/2/3
f 254/3/3 248/3/3 238/3/3
f 255/3/3 251/3/3 250/3/3
f 255/3/3 250/3/3 249/3/3
f 255/3/3 252/3/3 251/3/3
f 256/3/3 252/3/3 255/3/3
f 257/3/3 252/3/3 256/3/3
f 258/3/3 252/3/3 257/3/3
f 260/3/3 254/3/3 238/3/3
f 261/3/3 254/3/3 260/3/3
f 262/3/3 254/3/3 261/3/3
f 263/3/3 254/3/3 262/3/3
f 264/3/3 254/3/3 263/3/3
f 265/3/3 254/3/3 264/3/3
f 266/7/3 256/7/3 255/7/3
f 267/4/3 257/4/3 256/4/3
f 267/7/3 256/7/3 266/7/3
f 268/3/3 258/3/3 257/3/3
f 268/4/3 257/4/3 267/4/3
f 269/2/3 259/2/3 258/2/3
f 269/3/3 258/3/3 268/3/3
f 270/3/3 262/3/3 261/3/3
f 271/3/3 262/3/3 270/3/3
f 272/4/3 268/4/3 267/4/3
f 272/4/3 267/4/3 266/4/3
f 273/2/3 269/2/3 268/2/3
f 273/4/3 268/4/3 272/4/3
f 274/2/3 259/2/3 269/2/3
f 274/2/3 269/2/3 273/2/3
f 275/3/3 270/3/3 261/3/3
f 276/3/3 270/3/3 275/3/3
f 279/3/3 278/3/3 277/3/3
f 280/3/3 278/3/3 279/3/3
f 281/2/4 282/2/4 283/2/4
f 283/2/4 282/2/4 284/2/4
f 285/2/4 286/2/4 287/2/4
f 287/2/4 286/2/4 288/2/4
f 289/2/4 290/2/4 291/2/4
f 291/2/4 290/2/4 292/2/4
f 293/2/4 294/2/4 295/2/4
f 295/2/4 294/2/4 296/2/4
f 297/4/4 298/4/4 302/4/4
f 298/3/4 299/3/4 303/3/4
f 302/4/4 298/4/4 303/4/4
f 303/3/4 299/3/4 304/3/4
f 300/3/4 301/3/4 305/3/4
f 305/3/4 301/3/4 306/3/4
f 307/3/4 308/3/4 309/3/4
f 309/3/4 308/3/4 310/3/4
f 302/3/4 303/3/4 313/3/4
f 313/3/4 303/3/4 314/3/4
f 311/3/4 312/3/4 318/3/4
f 318/3/4 312/3/4 319/3/4
f 313/4/4 314/4/4 320/4/4
f 314/3/4 315/3/4 321/3/4
f 320/4/4 314/4/4 321/4/4
f 321/3/4 315/3/4 322/3/4
f 316/3/4 317/3/4 323/3/4
f 323/3/4 317/3/4 324/3/4
f 325/3/4 326/3/4 328/3/4
f 328/3/4 326/3/4 329/3/4
f 327/3/4 328/3/4 331/3/4
f 329/3/4 330/3/4 331/3/4
f 328/3/4 329/3/4 331/3/4
f 331/3/4 330/3/4 332/3/4
f 332/3/4 330/3/4 333/3/4
f 333/3/4 330/3/4 334/3/4
f 332/3/4 333/3/4 335/3/4
f 335/3/4 333/3/4 336/3/4
f 337/3/4 338/3/4 339/3/4
f 339/3/4 338/3/4 340/3/4
f 337/3/4 339/3/4 341/3/4
f 340/3/4 338/3/4 342/3/4
f 337/3/4 341/3/4 343/3/4
f 341/3/4 342/3/4 343/3/4
f 342/3/4 338/3/4 344/3/4
f 343/3/4 342/3/4 344/3/4
f 345/4/4 346/4/4 347/4/4
f 347/4/4 346/4/4 348/4/4
f 353/4/5 350/4/5 349/4/5
f 354/4/5 350/4/5 353/4/5
f 355/4/5 352/4/5 351/4/5
f 356/4/5 352/4/5 355/4/5
f 357/3/5 354/3/5 353/3/5
f 358/3/5 356/3/5 355/3/5
f 359/4/5 353/4/5 349/4/5
f 360/3/5 358/3/5 357/3/5
f 360/4/5 353/4/5 359/4/5
f 360/3/5 357/3/5 353/3/5
f 361/4/5 352/4/5 356/4/5
f 361/3/5 358/3/5 360/3/5
f 361/3/5 356/3/5 358/3/5
f 362/4/5 352/4/5 361/4/5
f 365/3/5 364/3/5 363/3/5
f 366/3/5 364/3/5 365/3/5
f 369/3/5 368/3/5 367/3/5
f 370/3/5 368/3/5 369/3/5
f 373/4/5 372/4/5 371/4/5
f 374/4/5 372/4/5 373/4/5
f 379/4/5 376/4/5 375/4/5
f 380/4/5 376/4/5 379/4/5
f 381/4/5 378/4/5 377/4/5
f 382/4/5 378/4/5 381/4/5
f 383/4/5 379/4/5 375/4/5
f 384/5/5 380/5/5 379/5/5
f 384/4/5 379/4/5 383/4/5
f 385/5/5 380/5/5 384/5/5
f 386/5/5 382/5/5 381/5/5
f 387/4/5 378/4/5 382/4/5
f 387/5/5 382/5/5 386/5/5
f 388/4/5 378/4/5 387/4/5
f 389/3/5 384/3/5 383/3/5
f 390/3/5 384/3/5 389/3/5
f 391/3/5 388/3/5 387/3/5
f 392/3/5 388/3/5 391/3/5
f 397/6/5 394/6/5 393/6/5
f 398/4/5 395/4/5 394/4/5
f 398/6/5 394/6/5 397/6/5
f 399/6/5 396/6/5 395/6/5
f 399/4/5 395/4/5 398/4/5
f 400/6/5 396/6/5 399/6/5
f 401/6/5 397/6/5 393/6/5
f 402/6/5 397/6/5 401/6/5
f 403/6/5 396/6/5 400/6/5
f 404/6/5 396/6/5 403/6/5
f 405/3/5 402/3/5 401/3/5
f 406/3/5 402/3/5 405/3/5
f 407/3/5 404/3/5 403/3/5
f 408/3/5 404/3/5 407/3/5
f 411/1/5 410/1/5 409/1/5
f 412/1/5 410/1/5 411/1/5
f 417/2/5 414/2/5 413/2/5
f 418/2/5 414/2/5 417/2/5
f 419/2/5 416/2/5 415/2/5
f 420/2/5 416/2/5 419/2/5
f 425/2/5 422/2/5 421/2/5
f 426/2/5 422/2/5 425/2/5
f 427/2/5 424/2/5 423/2/5
f 428/2/5 424/2/5 427/2/5
f 429/4/6 430/4/6 433/4/6
f 433/4/6 430/4/6 434/4/6
f 431/4/6 432/4/6 435/4/6
f 435/4/6 432/4/6 436/4/6
f 437/3/6 438/3/6 441/3/6
f 441/3/6 438/3/6 442/3/6
f 439/3/6 440/3/6 443/3/6
f 443/3/6 440/3/6 444/3/6
f 445/3/6 446/3/6 449/3/6
f 449/3/6 446/3/6 450/3/6
f 447/3/6 448/3/6 451/3/6
f 451/3/6 448/3/6 452/3/6
f 453/4/6 454/4/6 455/4/6
f 455/4/6 454/4/6 456/4/6
f 457/3/6 458/3/6 461/3/6
f 459/3/6 460/3/6 462/3/6
f 457/3/6 461/3/6 463/3/6
f 463/3/6 461/3/6 464/3/6
f 462/3/6 460/3/6 465/3/6
f 465/3/6 460/3/6 466/3/6
f 464/3/6 461/3/6 467/3/6
f 462/3/6 465/3/6 468/3/6
f 464/3/6 467/3/6 469/3/6
f 467/3/6 468/3/6 469/3/6
f 468/3/6 465/3/6 470/3/6
f 469/3/6 468/3/6 470/3/6
f 471/1/6 472/1/6 474/1/6
f 474/1/6 472/1/6 475/1/6
f 473/6/6 474/6/6 477/6/6
f 477/6/6 474/6/6 478/6/6
f 474/1/6 475/1/6 479/1/6
f 478/6/6 474/6/6 479/6/6
f 475/6/6 476/6/6 480/6/6
f 479/1/6 475/1/6 480/1/6
f 480/6/6 476/6/6 481/6/6
f 481/6/6 476/6/6 482/6/6
f 483/3/6 484/3/6 487/3/6
f 487/3/6 484/3/6 488/3/6
f 485/3/6 486/3/6 489/3/6
f 489/3/6 486/3/6 490/3/6
f 491/3/6 492/3/6 494/3/6
f 494/3/6 492/3/6 495/3/6
f 493/3/6 494/3/6 497/3/6
f 495/3/6 496/3/6 497/3/6
f 494/3/6 495/3/6 497/3/6
f 497/3/6 496/3/6 498/3/6
f 498/3/6 496/3/6 499/3/6
f 499/3/6 496/3/6 500/3/6
f 498/3/6 499/3/6 501/3/6
f 501/3/6 499/3/6 502/3/6
f 503/2/6 504/2/6 507/2/6
f 507/2/6 504/2/6 508/2/6
f 505/2/6 506/2/6 509/2/6
f 509/2/6 506/2/6 510/2/6
f 511/2/6 512/2/6 515/2/6
f 515/2/6 512/2/6 516/2/6
f 513/2/6 514/2/6 517/2/6
f 517/2/6 514/2/6 518/2/6
